<svg xmlns="http://www.w3.org/2000/svg" width="24" height="16" fill="none"><g clip-path="url(#a)"><path fill="#016FD0" d="M22 0H2a2 2 0 0 0-2 2v12a2 2 0 0 0 2 2h20a2 2 0 0 0 2-2V2a2 2 0 0 0-2-2"/><path fill="#FFFFFE" fill-rule="evenodd" d="M13.764 13.394V7.692l10.148.01v1.574l-1.173 1.254 1.173 1.265v1.608h-1.873l-.995-1.098-.988 1.102z" clip-rule="evenodd"/><path fill="#016FD0" fill-rule="evenodd" d="M14.442 12.769v-4.45h3.772v1.026h-2.55v.695h2.49v1.008h-2.49v.684h2.55v1.037z" clip-rule="evenodd"/><path fill="#016FD0" fill-rule="evenodd" d="m18.195 12.769 2.088-2.227-2.088-2.222h1.616l1.276 1.41 1.279-1.41h1.546v.035l-2.043 2.187 2.043 2.164v.063H22.35l-1.298-1.425-1.285 1.425z" clip-rule="evenodd"/><path fill="#FFFFFE" fill-rule="evenodd" d="M14.237 2.632h2.446l.86 1.95v-1.95h3.02l.52 1.461.523-1.461h2.306v5.701H11.725z" clip-rule="evenodd"/><path fill="#016FD0" fill-rule="evenodd" d="m14.7 3.251-1.973 4.445h1.354l.372-.89h2.018l.372.89h1.388l-1.966-4.445zm.17 2.557.592-1.415.592 1.415z" clip-rule="evenodd"/><path fill="#016FD0" fill-rule="evenodd" d="M18.212 7.696V3.25l1.903.007.98 2.733.985-2.74h1.832v4.446l-1.18.01V4.653L21.62 7.696h-1.075l-1.136-3.054v3.054z" clip-rule="evenodd"/></g><defs><clipPath id="a"><path fill="#fff" d="M0 0h24v16H0z"/></clipPath></defs></svg>