<svg xmlns="http://www.w3.org/2000/svg" width="21" height="20" fill="none"><path fill="#2D3748" d="M17.555 8.751h-5.742a2.02 2.02 0 0 1-1.393-.55 1.83 1.83 0 0 1-.576-1.325V1.407a.15.15 0 0 0-.048-.11.17.17 0 0 0-.116-.046H5.906c-.696 0-1.364.263-1.856.732a2.44 2.44 0 0 0-.769 1.768v12.5c0 .663.277 1.299.77 1.768.491.469 1.16.732 1.855.732h9.188c.696 0 1.364-.263 1.856-.732a2.44 2.44 0 0 0 .769-1.768V8.907a.15.15 0 0 0-.048-.11.17.17 0 0 0-.116-.046m-3.774 6.25H7.22a.67.67 0 0 1-.464-.183.6.6 0 0 1-.192-.442.6.6 0 0 1 .192-.442.67.67 0 0 1 .464-.183h6.562c.174 0 .341.066.464.183a.6.6 0 0 1 .193.442.6.6 0 0 1-.193.442.67.67 0 0 1-.464.183m0-3.125H7.22a.67.67 0 0 1-.464-.183.6.6 0 0 1-.192-.442.6.6 0 0 1 .192-.442.67.67 0 0 1 .464-.183h6.562c.174 0 .341.066.464.183a.6.6 0 0 1 .193.442.6.6 0 0 1-.193.442.67.67 0 0 1-.464.183"/><path fill="#2D3748" d="M17.195 7.369 11.296 1.75a.086.086 0 0 0-.09-.017.1.1 0 0 0-.036.029.1.1 0 0 0-.014.043v5.07c0 .167.07.326.192.443.123.117.29.183.464.183h5.325a.1.1 0 0 0 .045-.013.1.1 0 0 0 .03-.035.075.075 0 0 0-.017-.085"/></svg>