<svg xmlns="http://www.w3.org/2000/svg" width="229" height="60" fill="none"><g clip-path="url(#a)"><g clip-path="url(#b)"><g fill="#fff" clip-path="url(#c)"><path d="M18.985 43.12c-7.104 0-17.524-12.165-17.962-12.677l-.373-.439.373-.438c.438-.521 10.867-12.678 17.962-12.678 3.168 0 6.178 1.281 8.477 3.605 2.506 2.54 3.92 6.013 3.87 9.52-.107 7.467-5.408 13.108-12.347 13.108M2.445 30.005c1.935 2.183 10.776 11.76 16.54 11.76 6.17 0 10.892-5.061 10.983-11.768.041-3.101-1.257-6.294-3.473-8.543-2.035-2.068-4.706-3.2-7.51-3.2-5.764-.009-14.605 9.56-16.54 11.751"/><path d="m30.656 60-.439-.372c-.52-.439-12.678-10.867-12.678-17.963 0-3.168 1.282-6.178 3.606-8.469 2.539-2.506 5.996-3.87 9.519-3.87 7.476.107 13.108 5.408 13.108 12.339 0 7.104-12.157 17.524-12.678 17.963zm-.166-29.326c-3.051 0-6.186 1.29-8.402 3.482-2.068 2.034-3.2 4.705-3.2 7.509 0 5.764 9.576 14.605 11.76 16.549 2.183-1.944 11.76-10.785 11.76-16.55 0-6.169-5.062-10.891-11.769-10.982-.041-.008-.1-.008-.149-.008"/><path d="M42.317 43.12c-3.167 0-6.178-1.281-8.477-3.605-2.506-2.54-3.912-6.013-3.87-9.52.107-7.467 5.408-13.107 12.339-13.107 7.104 0 17.524 12.157 17.963 12.678l.372.438-.372.438c-.43.513-10.86 12.679-17.955 12.679m0-24.876c-6.17 0-10.892 5.061-10.983 11.768-.041 3.102 1.257 6.294 3.474 8.552 2.034 2.067 4.705 3.2 7.509 3.2 5.764 0 14.605-9.577 16.548-11.76-1.943-2.191-10.784-11.76-16.548-11.76"/><path d="M30.821 30.682h-.174c-7.476-.107-13.108-5.408-13.108-12.339C17.54 11.24 29.696.82 30.217.38l.439-.38.438.372c.52.438 12.678 10.867 12.678 17.963 0 3.168-1.282 6.178-3.606 8.469-2.506 2.472-5.896 3.878-9.345 3.878m-.165-28.887C28.464 3.73 18.887 12.57 18.887 18.335c0 6.17 5.061 10.892 11.769 10.983 3.134.082 6.293-1.257 8.55-3.474 2.069-2.034 3.201-4.705 3.201-7.509.009-5.764-9.568-14.605-11.751-16.54M85.983 21.45q0-.9-.15-1.32-.15-.45-.93-.45v-.18h4.56v.18q-.78 0-.93.45-.15.42-.15 1.32v5.61h9.87v-5.61q0-.9-.15-1.32-.15-.45-.93-.45v-.18h4.561v.18q-.78 0-.93.45-.15.42-.15 1.32v17.1q0 .9.15 1.35.15.42.93.42v.18h-4.56v-.18q.78 0 .93-.42.15-.45.15-1.35V27.72h-9.87v10.83q0 .9.15 1.35.15.42.93.42v.18h-4.56v-.18q.78 0 .93-.42.15-.45.15-1.35zm25.314 3.21q2.67 0 3.9 1.5t1.23 4.77v7.77q0 .96.21 1.29t.72.33v.18h-3.12v-3.96q-1.05 1.92-2.61 3.03t-3.33 1.11q-.93 0-1.71-.3-.78-.33-1.38-.87-.57-.57-.9-1.32t-.33-1.62q0-2.31 2.49-4.08 2.49-1.8 7.65-2.64-.09-2.37-.93-3.48t-2.52-1.11q-1.71 0-3.12 1.11-1.38 1.11-2.25 3.18h-.18v-2.4q1.05-1.17 2.67-1.83 1.65-.66 3.51-.66m2.82 5.85q-3.99.69-5.88 2.28-1.86 1.56-1.86 3.69 0 1.44.72 2.25.75.78 1.98.78 1.47 0 2.82-1.08t2.22-2.94zm4.684-5.67h1.5v-2.52l2.31-.39v2.91h5.85v.66h-5.85v10.8q0 1.77.51 2.58.51.78 1.62.78.99 0 2.19-.6t2.07-1.74l.15.09q-1.14 1.5-2.61 2.4-1.47.87-2.85.87-1.59 0-2.49-1.17t-.9-3.24V25.5h-1.5zm12.204-4.14q0-.93-.21-1.26-.18-.36-.72-.36v-.18h3.12v11.01q.48-1.23 1.2-2.19t1.56-1.65q.87-.69 1.77-1.05.93-.36 1.8-.36t1.62.36q.78.36 1.35 1.14.57.75.9 1.95.36 1.2.36 2.85v7.74q0 .93.21 1.29.21.33.72.33v.18h-4.26v-.18q.54 0 .72-.33.21-.36.21-1.26v-8.07q0-1.29-.21-2.19-.21-.93-.6-1.5-.36-.57-.87-.81-.51-.27-1.08-.27-.75 0-1.56.42-.78.39-1.5 1.11t-1.32 1.74a9.5 9.5 0 0 0-.9 2.16v7.38q0 .93.21 1.29.21.33.72.33v.18h-4.17v-.18q.54 0 .72-.33.21-.36.21-1.29zm23.036 3.96q2.67 0 3.9 1.5t1.23 4.77v7.77q0 .96.21 1.29t.72.33v.18h-3.12v-3.96q-1.05 1.92-2.61 3.03t-3.33 1.11q-.93 0-1.71-.3-.78-.33-1.38-.87-.57-.57-.9-1.32t-.33-1.62q0-2.31 2.49-4.08 2.49-1.8 7.65-2.64-.09-2.37-.93-3.48t-2.52-1.11q-1.71 0-3.12 1.11-1.38 1.11-2.25 3.18h-.18v-2.4q1.05-1.17 2.67-1.83 1.65-.66 3.51-.66m2.82 5.85q-3.99.69-5.88 2.28-1.86 1.56-1.86 3.69 0 1.44.72 2.25.75.78 1.98.78 1.47 0 2.82-1.08t2.22-2.94zm10.45 13.62q.48.09 1.02.18t1.14.09q1.05 0 1.98-.45.96-.45 1.5-1.8l.75-1.92-5.34-13.38q-.36-.9-.69-1.35-.33-.48-.99-.48v-.18h4.86v.18q-.81 0-.9.54-.06.51.27 1.29l4.05 10.26 4.02-10.23q.15-.39.24-.72t.06-.57q0-.27-.18-.42-.15-.15-.51-.15v-.18h2.61v.18q-.48 0-.81.57-.33.54-.69 1.41l-6.03 15.3q-.48 1.26-1.23 2.07t-1.62 1.26q-.84.45-1.77.63-.9.18-1.74.18zm21.531-19.47q1.53 0 2.85.63 1.32.6 2.28 1.68.99 1.08 1.53 2.58.54 1.47.54 3.21 0 1.71-.54 3.18-.54 1.44-1.5 2.52-.93 1.05-2.25 1.65-1.29.57-2.85.57t-2.91-.6q-1.32-.6-2.28-1.65a8 8 0 0 1-1.5-2.52q-.54-1.47-.54-3.21t.54-3.21 1.5-2.55 2.25-1.68q1.32-.6 2.88-.6m.03.57q-1.11 0-2.01.54-.87.51-1.5 1.47t-.96 2.34q-.33 1.35-.33 3.06t.33 3.09q.36 1.38.99 2.37.63.96 1.5 1.5.9.51 2.01.51 1.08 0 1.95-.51.9-.54 1.5-1.5.63-.96.96-2.31.33-1.38.33-3.09t-.33-3.09-.96-2.34q-.63-.99-1.53-1.5-.87-.54-1.95-.54m15.905-.57q1.02 0 1.95.27.93.24 1.71.72l3.54-1.02.06.06v1.62h-.06l-3.21-.45q1.05.72 1.65 1.74.63 1.02.63 2.28 0 1.08-.48 1.98t-1.32 1.59q-.84.66-1.95 1.05-1.11.36-2.37.36-2.19 0-3.87-1.08-.54.45-.87.96-.33.48-.33.9 0 1.2 3.27 1.38l4.53.27q4.38.27 4.38 3.51 0 1.26-.63 2.31-.6 1.08-1.68 1.86-1.05.78-2.52 1.2-1.44.45-3.15.45-1.35 0-2.52-.3-1.17-.27-2.01-.81t-1.32-1.29a3.05 3.05 0 0 1-.48-1.68q0-2.22 2.79-3.66-1.02-.33-1.62-.93t-.6-1.41q0-.72.54-1.47.57-.75 1.8-1.59a5.4 5.4 0 0 1-1.44-1.65q-.51-.96-.51-2.1 0-1.08.48-2.01t1.32-1.59q.84-.69 1.92-1.08 1.11-.39 2.37-.39m.06.57q-1.74 0-2.82 1.2-1.05 1.17-1.05 3.33 0 2.19 1.08 3.36t2.85 1.17 2.82-1.14 1.05-3.3q0-2.19-1.08-3.39-1.08-1.23-2.85-1.23m-3.75 13.8q-1.8 1.29-1.8 3.06 0 .87.42 1.59.42.75 1.14 1.26t1.68.78q.99.3 2.1.3 1.23 0 2.28-.33 1.08-.33 1.86-.93.81-.57 1.26-1.35.48-.78.48-1.65 0-1.05-.69-1.59t-2.19-.63l-5.31-.33q-.69-.06-1.23-.18m20.278-14.37q2.67 0 3.9 1.5t1.23 4.77v7.77q0 .96.21 1.29t.72.33v.18h-3.12v-3.96q-1.05 1.92-2.61 3.03t-3.33 1.11q-.93 0-1.71-.3-.78-.33-1.38-.87-.57-.57-.9-1.32t-.33-1.62q0-2.31 2.49-4.08 2.49-1.8 7.65-2.64-.09-2.37-.93-3.48t-2.52-1.11q-1.71 0-3.12 1.11-1.38 1.11-2.25 3.18h-.18v-2.4q1.05-1.17 2.67-1.83 1.65-.66 3.51-.66m2.82 5.85q-3.99.69-5.88 2.28-1.86 1.56-1.86 3.69 0 1.44.72 2.25.75.78 1.98.78 1.47 0 2.82-1.08t2.22-2.94z"/></g></g></g><defs><clipPath id="a"><path fill="#fff" d="M.65 0h228v60H.65z"/></clipPath><clipPath id="b"><path fill="#fff" d="M.65 0h228v60H.65z"/></clipPath><clipPath id="c"><path fill="#fff" d="M.65 0h228v60H.65z"/></clipPath></defs></svg>