<svg width="248" height="60" viewBox="0 0 248 60" fill="none" xmlns="http://www.w3.org/2000/svg">
<g clip-path="url(#clip0_1_3179)">
<g clip-path="url(#clip1_1_3179)">
<g clip-path="url(#clip2_1_3179)">
<path d="M41.3281 18.6851C47.3724 18.6851 59.8688 29.0223 60.3959 29.4644C60.5574 29.6004 60.6509 29.7959 60.6509 30C60.6509 30.204 60.5574 30.3995 60.3959 30.5355C59.8688 30.9776 47.3724 41.3148 41.3281 41.3148V39.9206C46.1397 39.9206 56.1794 32.1337 58.8487 30C56.1794 27.8662 46.1397 20.0793 41.3281 20.0793V18.6851Z" fill="white"/>
<path d="M19.9732 20.0793C15.1616 20.0793 5.12193 27.8662 2.45261 30C5.11343 32.1337 15.1616 39.9206 19.9732 39.9206V41.3148C13.929 41.3148 1.43249 30.9776 0.905424 30.5355C0.743904 30.3995 0.650391 30.204 0.650391 30C0.650391 29.7959 0.743904 29.6004 0.905424 29.4644C1.43249 29.0223 13.929 18.6851 19.9732 18.6851V20.0793Z" fill="white"/>
<path d="M30.1904 14.4435C34.4664 10.1675 50.6099 8.64583 51.2985 8.58632C51.5025 8.56932 51.7065 8.64583 51.851 8.79034C51.9955 8.93486 52.072 9.13888 52.055 9.34291C51.9955 10.0314 50.4739 26.1749 46.1978 30.4509L45.2117 29.4648C48.6121 26.0644 50.2103 13.4574 50.5844 10.0655C47.1925 10.4395 34.577 12.0377 31.1766 15.4381L30.1904 14.4435Z" fill="white"/>
<path d="M16.0798 30.5359C12.6794 33.9363 11.0812 46.5433 10.7071 49.9437C14.099 49.5696 26.706 47.9715 30.1064 44.5711L31.0926 45.5572C26.8165 49.8332 10.6731 51.3549 9.98451 51.4144C9.78049 51.4314 9.57646 51.3549 9.43194 51.2103C9.28742 51.0658 9.21092 50.8618 9.22793 50.6578C9.28743 49.9692 10.8091 33.8258 15.0851 29.5498L16.0798 30.5359Z" fill="white"/>
<path d="M19.3271 19.3228C19.3271 13.2786 29.6643 0.782093 30.1063 0.25503C30.2424 0.0935111 30.4379 0 30.6419 0C30.8459 0 31.0415 0.0935111 31.1775 0.25503C31.6195 0.782093 41.9568 13.2786 41.9568 19.3228H40.5626C40.5626 14.5112 32.7757 4.47153 30.6419 1.80221C28.5082 4.47153 20.7212 14.5112 20.7212 19.3228H19.3271Z" fill="white"/>
<path d="M20.7212 40.6772C20.7212 45.4888 28.5082 55.5285 30.6419 58.1978C32.7757 55.5285 40.5626 45.4888 40.5626 40.6772H41.9568C41.9568 46.7215 31.6195 59.218 31.1775 59.745C31.0415 59.9065 30.8459 60 30.6419 60C30.4379 60 30.2424 59.9065 30.1063 59.745C29.6643 59.218 19.3271 46.7215 19.3271 40.6772H20.7212Z" fill="white"/>
<path d="M15.093 30.4509C10.8169 26.1749 9.29524 10.0314 9.23574 9.34291C9.21874 9.13888 9.29525 8.93486 9.43977 8.79034C9.58428 8.64583 9.7883 8.56932 9.99233 8.58632C10.6809 8.64583 26.8244 10.1675 31.1004 14.4435L30.1142 15.4296C26.7138 12.0292 14.1068 10.431 10.7149 10.057C11.089 13.4489 12.6872 26.0644 16.0876 29.4648L15.093 30.4509Z" fill="white"/>
<path d="M31.1766 44.5625C34.577 47.963 47.184 49.5611 50.5844 49.9352C50.2103 46.5433 48.6121 33.9363 45.2117 30.5359L46.1978 29.5498C50.4739 33.8258 51.9955 49.9692 52.055 50.6578C52.072 50.8618 51.9955 51.0658 51.851 51.2103C51.7065 51.3549 51.5025 51.4314 51.2985 51.4144C50.6099 51.3549 34.4664 49.8332 30.1904 45.5572L31.1766 44.5625Z" fill="white"/>
<path d="M30.819 45.5911C22.233 45.5911 15.2451 38.6032 15.2451 30.0172C15.2451 21.4312 22.233 14.4434 30.819 14.4434C39.405 14.4434 46.3928 21.4312 46.3928 30.0172C46.3928 38.6032 39.405 45.5911 30.819 45.5911ZM30.819 15.846C23.0065 15.846 16.6393 22.2048 16.6393 30.0257C16.6393 37.8466 22.998 44.2054 30.819 44.2054C38.6314 44.2054 44.9987 37.8466 44.9987 30.0257C44.9987 22.2048 38.6399 15.846 30.819 15.846Z" fill="white"/>
<path d="M30.8191 33.1044C29.123 33.1044 27.7402 31.7216 27.7402 30.0255C27.7402 28.3201 29.1238 26.938 30.8191 26.938C32.5159 26.938 33.9065 28.3216 33.9065 30.0255C33.9065 31.7208 32.5244 33.1044 30.8191 33.1044ZM30.8191 27.3322C29.3333 27.3322 28.1343 28.5447 28.1343 30.0255C28.1343 31.5087 29.3358 32.7102 30.8191 32.7102C32.2998 32.7102 33.5123 31.5113 33.5123 30.0255C33.5123 28.5324 32.3011 27.3322 30.8191 27.3322Z" fill="white" stroke="white"/>
<path d="M86.9911 21.45C86.9911 20.81 86.9311 20.36 86.8111 20.1C86.7111 19.82 86.4111 19.68 85.9111 19.68V19.5H90.4711V19.68C89.9911 19.68 89.6911 19.82 89.5711 20.1C89.4511 20.36 89.3911 20.81 89.3911 21.45V38.55C89.3911 39.19 89.4511 39.65 89.5711 39.93C89.6911 40.19 89.9911 40.32 90.4711 40.32V40.5H85.9111V40.32C86.4111 40.32 86.7111 40.19 86.8111 39.93C86.9311 39.65 86.9911 39.19 86.9911 38.55V21.45ZM92.0876 44.13C92.4076 44.19 92.7476 44.25 93.1076 44.31C93.4676 44.37 93.8476 44.4 94.2476 44.4C94.9476 44.4 95.6076 44.25 96.2276 43.95C96.8676 43.65 97.3676 43.05 97.7276 42.15L98.4776 40.23L93.1376 26.85C92.8976 26.25 92.6676 25.8 92.4476 25.5C92.2276 25.18 91.8976 25.02 91.4576 25.02V24.84H96.3176V25.02C95.7776 25.02 95.4776 25.2 95.4176 25.56C95.3776 25.9 95.4676 26.33 95.6876 26.85L99.7376 37.11L103.757 26.88C103.857 26.62 103.937 26.38 103.997 26.16C104.057 25.94 104.077 25.75 104.057 25.59C104.057 25.41 103.997 25.27 103.877 25.17C103.777 25.07 103.607 25.02 103.367 25.02V24.84H105.977V25.02C105.657 25.02 105.387 25.21 105.167 25.59C104.947 25.95 104.717 26.42 104.477 27L98.4476 42.3C98.1276 43.14 97.7176 43.83 97.2176 44.37C96.7176 44.91 96.1776 45.33 95.5976 45.63C95.0376 45.93 94.4476 46.14 93.8276 46.26C93.2276 46.38 92.6476 46.44 92.0876 46.44V44.13ZM119.919 35.34C119.479 36.98 118.669 38.28 117.489 39.24C116.329 40.2 114.959 40.68 113.379 40.68C112.379 40.68 111.449 40.48 110.589 40.08C109.749 39.68 109.019 39.13 108.399 38.43C107.799 37.71 107.319 36.86 106.959 35.88C106.619 34.9 106.449 33.83 106.449 32.67C106.449 31.51 106.619 30.44 106.959 29.46C107.299 28.48 107.769 27.64 108.369 26.94C108.969 26.22 109.679 25.66 110.499 25.26C111.339 24.86 112.249 24.66 113.229 24.66C114.029 24.66 114.789 24.8 115.509 25.08C116.229 25.36 116.879 25.76 117.459 26.28C118.039 26.78 118.539 27.4 118.959 28.14C119.379 28.86 119.679 29.66 119.859 30.54H108.969C108.929 30.82 108.899 31.12 108.879 31.44C108.859 31.74 108.849 32.05 108.849 32.37C108.849 33.49 108.979 34.51 109.239 35.43C109.499 36.33 109.859 37.1 110.319 37.74C110.799 38.36 111.369 38.84 112.029 39.18C112.709 39.52 113.459 39.69 114.279 39.69C115.559 39.69 116.689 39.31 117.669 38.55C118.649 37.77 119.339 36.69 119.739 35.31L119.919 35.34ZM113.379 25.23C112.319 25.23 111.409 25.65 110.649 26.49C109.909 27.31 109.389 28.44 109.089 29.88H117.489C117.189 28.38 116.679 27.23 115.959 26.43C115.259 25.63 114.399 25.23 113.379 25.23ZM122.813 26.64C122.813 26.02 122.743 25.6 122.603 25.38C122.483 25.14 122.243 25.02 121.883 25.02V24.84H124.943V30.03C125.263 29.21 125.663 28.47 126.143 27.81C126.623 27.13 127.143 26.56 127.703 26.1C128.283 25.64 128.883 25.29 129.503 25.05C130.123 24.79 130.733 24.66 131.333 24.66C131.913 24.66 132.453 24.78 132.953 25.02C133.473 25.26 133.923 25.64 134.303 26.16C134.683 26.66 134.983 27.31 135.203 28.11C135.443 28.91 135.563 29.86 135.563 30.96V38.7C135.563 39.32 135.633 39.75 135.773 39.99C135.913 40.21 136.153 40.32 136.493 40.32V40.5H132.233V40.32C132.593 40.32 132.833 40.21 132.953 39.99C133.093 39.75 133.163 39.33 133.163 38.73V30.66C133.163 29.8 133.093 29.07 132.953 28.47C132.813 27.85 132.613 27.35 132.353 26.97C132.113 26.59 131.823 26.32 131.483 26.16C131.143 25.98 130.783 25.89 130.403 25.89C129.903 25.89 129.383 26.02 128.843 26.28C128.323 26.54 127.823 26.91 127.343 27.39C126.863 27.87 126.423 28.44 126.023 29.1C125.643 29.74 125.343 30.45 125.123 31.23V38.7C125.123 39.32 125.193 39.75 125.333 39.99C125.473 40.21 125.713 40.32 126.053 40.32V40.5H121.883V40.32C122.243 40.32 122.483 40.21 122.603 39.99C122.743 39.75 122.813 39.32 122.813 38.7V26.64ZM145.579 24.66C146.259 24.66 146.909 24.75 147.529 24.93C148.149 25.09 148.719 25.33 149.239 25.65L152.779 24.63L152.839 24.69V26.31H152.779L149.569 25.86C150.269 26.34 150.819 26.92 151.219 27.6C151.639 28.28 151.849 29.04 151.849 29.88C151.849 30.6 151.689 31.26 151.369 31.86C151.049 32.46 150.609 32.99 150.049 33.45C149.489 33.89 148.839 34.24 148.099 34.5C147.359 34.74 146.569 34.86 145.729 34.86C144.269 34.86 142.979 34.5 141.859 33.78C141.499 34.08 141.209 34.4 140.989 34.74C140.769 35.06 140.659 35.36 140.659 35.64C140.659 36.44 141.749 36.9 143.929 37.02L148.459 37.29C151.379 37.47 152.839 38.64 152.839 40.8C152.839 41.64 152.629 42.41 152.209 43.11C151.809 43.83 151.249 44.45 150.529 44.97C149.829 45.49 148.989 45.89 148.009 46.17C147.049 46.47 145.999 46.62 144.859 46.62C143.959 46.62 143.119 46.52 142.339 46.32C141.559 46.14 140.889 45.87 140.329 45.51C139.769 45.15 139.329 44.72 139.009 44.22C138.689 43.72 138.529 43.16 138.529 42.54C138.529 41.06 139.459 39.84 141.319 38.88C140.639 38.66 140.099 38.35 139.699 37.95C139.299 37.55 139.099 37.08 139.099 36.54C139.099 36.06 139.279 35.57 139.639 35.07C140.019 34.57 140.619 34.04 141.439 33.48C140.839 33.02 140.359 32.47 139.999 31.83C139.659 31.19 139.489 30.49 139.489 29.73C139.489 29.01 139.649 28.34 139.969 27.72C140.289 27.1 140.729 26.57 141.289 26.13C141.849 25.67 142.489 25.31 143.209 25.05C143.949 24.79 144.739 24.66 145.579 24.66ZM145.639 25.23C144.479 25.23 143.539 25.63 142.819 26.43C142.119 27.21 141.769 28.32 141.769 29.76C141.769 31.22 142.129 32.34 142.849 33.12C143.569 33.9 144.519 34.29 145.699 34.29C146.879 34.29 147.819 33.91 148.519 33.15C149.219 32.39 149.569 31.29 149.569 29.85C149.569 28.39 149.209 27.26 148.489 26.46C147.769 25.64 146.819 25.23 145.639 25.23ZM141.889 39.03C140.689 39.89 140.089 40.91 140.089 42.09C140.089 42.67 140.229 43.2 140.509 43.68C140.789 44.18 141.169 44.6 141.649 44.94C142.129 45.28 142.689 45.54 143.329 45.72C143.989 45.92 144.689 46.02 145.429 46.02C146.249 46.02 147.009 45.91 147.709 45.69C148.429 45.47 149.049 45.16 149.569 44.76C150.109 44.38 150.529 43.93 150.829 43.41C151.149 42.89 151.309 42.34 151.309 41.76C151.309 41.06 151.079 40.53 150.619 40.17C150.159 39.81 149.429 39.6 148.429 39.54L143.119 39.21C142.659 39.17 142.249 39.11 141.889 39.03ZM162.167 24.66C163.947 24.66 165.247 25.16 166.067 26.16C166.887 27.16 167.297 28.75 167.297 30.93V38.7C167.297 39.34 167.367 39.77 167.507 39.99C167.647 40.21 167.887 40.32 168.227 40.32V40.5H165.107V36.54C164.407 37.82 163.537 38.83 162.497 39.57C161.457 40.31 160.347 40.68 159.167 40.68C158.547 40.68 157.977 40.58 157.457 40.38C156.937 40.16 156.477 39.87 156.077 39.51C155.697 39.13 155.397 38.69 155.177 38.19C154.957 37.69 154.847 37.15 154.847 36.57C154.847 35.03 155.677 33.67 157.337 32.49C158.997 31.29 161.547 30.41 164.987 29.85C164.927 28.27 164.617 27.11 164.057 26.37C163.497 25.63 162.657 25.26 161.537 25.26C160.397 25.26 159.357 25.63 158.417 26.37C157.497 27.11 156.747 28.17 156.167 29.55H155.987V27.15C156.687 26.37 157.577 25.76 158.657 25.32C159.757 24.88 160.927 24.66 162.167 24.66ZM164.987 30.51C162.327 30.97 160.367 31.73 159.107 32.79C157.867 33.83 157.247 35.06 157.247 36.48C157.247 37.44 157.487 38.19 157.967 38.73C158.467 39.25 159.127 39.51 159.947 39.51C160.927 39.51 161.867 39.15 162.767 38.43C163.667 37.71 164.407 36.73 164.987 35.49V30.51ZM170.947 26.64C170.947 26.04 170.877 25.62 170.737 25.38C170.617 25.14 170.377 25.02 170.017 25.02V24.84H173.077V30.24C173.317 29.54 173.627 28.86 174.007 28.2C174.407 27.54 174.867 26.95 175.387 26.43C175.927 25.89 176.537 25.46 177.217 25.14C177.897 24.82 178.647 24.66 179.467 24.66V27.12C178.927 26.96 178.437 26.88 177.997 26.88C176.857 26.88 175.867 27.3 175.027 28.14C174.207 28.98 173.617 30.1 173.257 31.5V38.7C173.257 39.3 173.317 39.72 173.437 39.96C173.577 40.2 173.827 40.32 174.187 40.32V40.5H170.017V40.32C170.377 40.32 170.617 40.2 170.737 39.96C170.877 39.72 170.947 39.3 170.947 38.7V26.64ZM186.13 44.13C186.45 44.19 186.79 44.25 187.15 44.31C187.51 44.37 187.89 44.4 188.29 44.4C188.99 44.4 189.65 44.25 190.27 43.95C190.91 43.65 191.41 43.05 191.77 42.15L192.52 40.23L187.18 26.85C186.94 26.25 186.71 25.8 186.49 25.5C186.27 25.18 185.94 25.02 185.5 25.02V24.84H190.36V25.02C189.82 25.02 189.52 25.2 189.46 25.56C189.42 25.9 189.51 26.33 189.73 26.85L193.78 37.11L197.8 26.88C197.9 26.62 197.98 26.38 198.04 26.16C198.1 25.94 198.12 25.75 198.1 25.59C198.1 25.41 198.04 25.27 197.92 25.17C197.82 25.07 197.65 25.02 197.41 25.02V24.84H200.02V25.02C199.7 25.02 199.43 25.21 199.21 25.59C198.99 25.95 198.76 26.42 198.52 27L192.49 42.3C192.17 43.14 191.76 43.83 191.26 44.37C190.76 44.91 190.22 45.33 189.64 45.63C189.08 45.93 188.49 46.14 187.87 46.26C187.27 46.38 186.69 46.44 186.13 46.44V44.13ZM207.662 24.66C208.682 24.66 209.632 24.87 210.512 25.29C211.392 25.69 212.152 26.25 212.792 26.97C213.452 27.69 213.962 28.55 214.322 29.55C214.682 30.53 214.862 31.6 214.862 32.76C214.862 33.9 214.682 34.96 214.322 35.94C213.962 36.9 213.462 37.74 212.822 38.46C212.202 39.16 211.452 39.71 210.572 40.11C209.712 40.49 208.762 40.68 207.722 40.68C206.682 40.68 205.712 40.48 204.812 40.08C203.932 39.68 203.172 39.13 202.532 38.43C201.892 37.71 201.392 36.87 201.032 35.91C200.672 34.93 200.492 33.86 200.492 32.7C200.492 31.54 200.672 30.47 201.032 29.49C201.392 28.51 201.892 27.66 202.532 26.94C203.172 26.22 203.922 25.66 204.782 25.26C205.662 24.86 206.622 24.66 207.662 24.66ZM207.692 25.23C206.952 25.23 206.282 25.41 205.682 25.77C205.102 26.11 204.602 26.6 204.182 27.24C203.762 27.88 203.442 28.66 203.222 29.58C203.002 30.48 202.892 31.5 202.892 32.64C202.892 33.78 203.002 34.81 203.222 35.73C203.462 36.65 203.792 37.44 204.212 38.1C204.632 38.74 205.132 39.24 205.712 39.6C206.312 39.94 206.982 40.11 207.722 40.11C208.442 40.11 209.092 39.94 209.672 39.6C210.272 39.24 210.772 38.74 211.172 38.1C211.592 37.46 211.912 36.69 212.132 35.79C212.352 34.87 212.462 33.84 212.462 32.7C212.462 31.56 212.352 30.53 212.132 29.61C211.912 28.69 211.592 27.91 211.172 27.27C210.752 26.61 210.242 26.11 209.642 25.77C209.062 25.41 208.412 25.23 207.692 25.23ZM223.596 24.66C224.276 24.66 224.926 24.75 225.546 24.93C226.166 25.09 226.736 25.33 227.256 25.65L230.796 24.63L230.856 24.69V26.31H230.796L227.586 25.86C228.286 26.34 228.836 26.92 229.236 27.6C229.656 28.28 229.866 29.04 229.866 29.88C229.866 30.6 229.706 31.26 229.386 31.86C229.066 32.46 228.626 32.99 228.066 33.45C227.506 33.89 226.856 34.24 226.116 34.5C225.376 34.74 224.586 34.86 223.746 34.86C222.286 34.86 220.996 34.5 219.876 33.78C219.516 34.08 219.226 34.4 219.006 34.74C218.786 35.06 218.676 35.36 218.676 35.64C218.676 36.44 219.766 36.9 221.946 37.02L226.476 37.29C229.396 37.47 230.856 38.64 230.856 40.8C230.856 41.64 230.646 42.41 230.226 43.11C229.826 43.83 229.266 44.45 228.546 44.97C227.846 45.49 227.006 45.89 226.026 46.17C225.066 46.47 224.016 46.62 222.876 46.62C221.976 46.62 221.136 46.52 220.356 46.32C219.576 46.14 218.906 45.87 218.346 45.51C217.786 45.15 217.346 44.72 217.026 44.22C216.706 43.72 216.546 43.16 216.546 42.54C216.546 41.06 217.476 39.84 219.336 38.88C218.656 38.66 218.116 38.35 217.716 37.95C217.316 37.55 217.116 37.08 217.116 36.54C217.116 36.06 217.296 35.57 217.656 35.07C218.036 34.57 218.636 34.04 219.456 33.48C218.856 33.02 218.376 32.47 218.016 31.83C217.676 31.19 217.506 30.49 217.506 29.73C217.506 29.01 217.666 28.34 217.986 27.72C218.306 27.1 218.746 26.57 219.306 26.13C219.866 25.67 220.506 25.31 221.226 25.05C221.966 24.79 222.756 24.66 223.596 24.66ZM223.656 25.23C222.496 25.23 221.556 25.63 220.836 26.43C220.136 27.21 219.786 28.32 219.786 29.76C219.786 31.22 220.146 32.34 220.866 33.12C221.586 33.9 222.536 34.29 223.716 34.29C224.896 34.29 225.836 33.91 226.536 33.15C227.236 32.39 227.586 31.29 227.586 29.85C227.586 28.39 227.226 27.26 226.506 26.46C225.786 25.64 224.836 25.23 223.656 25.23ZM219.906 39.03C218.706 39.89 218.106 40.91 218.106 42.09C218.106 42.67 218.246 43.2 218.526 43.68C218.806 44.18 219.186 44.6 219.666 44.94C220.146 45.28 220.706 45.54 221.346 45.72C222.006 45.92 222.706 46.02 223.446 46.02C224.266 46.02 225.026 45.91 225.726 45.69C226.446 45.47 227.066 45.16 227.586 44.76C228.126 44.38 228.546 43.93 228.846 43.41C229.166 42.89 229.326 42.34 229.326 41.76C229.326 41.06 229.096 40.53 228.636 40.17C228.176 39.81 227.446 39.6 226.446 39.54L221.136 39.21C220.676 39.17 220.266 39.11 219.906 39.03ZM240.185 24.66C241.965 24.66 243.265 25.16 244.085 26.16C244.905 27.16 245.315 28.75 245.315 30.93V38.7C245.315 39.34 245.385 39.77 245.525 39.99C245.665 40.21 245.905 40.32 246.245 40.32V40.5H243.125V36.54C242.425 37.82 241.555 38.83 240.515 39.57C239.475 40.31 238.365 40.68 237.185 40.68C236.565 40.68 235.995 40.58 235.475 40.38C234.955 40.16 234.495 39.87 234.095 39.51C233.715 39.13 233.415 38.69 233.195 38.19C232.975 37.69 232.865 37.15 232.865 36.57C232.865 35.03 233.695 33.67 235.355 32.49C237.015 31.29 239.565 30.41 243.005 29.85C242.945 28.27 242.635 27.11 242.075 26.37C241.515 25.63 240.675 25.26 239.555 25.26C238.415 25.26 237.375 25.63 236.435 26.37C235.515 27.11 234.765 28.17 234.185 29.55H234.005V27.15C234.705 26.37 235.595 25.76 236.675 25.32C237.775 24.88 238.945 24.66 240.185 24.66ZM243.005 30.51C240.345 30.97 238.385 31.73 237.125 32.79C235.885 33.83 235.265 35.06 235.265 36.48C235.265 37.44 235.505 38.19 235.985 38.73C236.485 39.25 237.145 39.51 237.965 39.51C238.945 39.51 239.885 39.15 240.785 38.43C241.685 37.71 242.425 36.73 243.005 35.49V30.51Z" fill="white"/>
</g>
</g>
</g>
<defs>
<clipPath id="clip0_1_3179">
<rect width="247" height="60" fill="white" transform="translate(0.650391)"/>
</clipPath>
<clipPath id="clip1_1_3179">
<rect width="247" height="60" fill="white" transform="translate(0.650391)"/>
</clipPath>
<clipPath id="clip2_1_3179">
<rect width="247" height="60" fill="white" transform="translate(0.650391)"/>
</clipPath>
</defs>
</svg>
