<svg xmlns="http://www.w3.org/2000/svg" width="248" height="60" fill="none"><g clip-path="url(#a)"><g clip-path="url(#b)"><g fill="#fff" clip-path="url(#c)"><path d="M41.328 18.685c6.044 0 18.54 10.337 19.068 10.78a.7.7 0 0 1 .255.535c0 .204-.094.4-.255.535-.527.443-13.024 10.78-19.068 10.78V39.92c4.812 0 14.851-7.787 17.52-9.921-2.669-2.134-12.708-9.92-17.52-9.92zM19.973 20.08c-4.811 0-14.851 7.786-17.52 9.92 2.66 2.134 12.709 9.92 17.52 9.92v1.395c-6.044 0-18.54-10.337-19.068-10.78A.7.7 0 0 1 .65 30c0-.204.094-.4.255-.536.527-.442 13.024-10.779 19.068-10.779z"/><path d="M30.19 14.444c4.276-4.276 20.42-5.798 21.108-5.858a.704.704 0 0 1 .757.757c-.06.688-1.581 16.832-5.857 21.108l-.986-.986c3.4-3.4 4.998-16.008 5.372-19.4-3.392.375-16.007 1.973-19.407 5.373zM16.08 30.536c-3.4 3.4-4.999 16.007-5.373 19.408 3.392-.374 15.999-1.973 19.4-5.373l.986.986c-4.276 4.276-20.42 5.798-21.108 5.857a.704.704 0 0 1-.757-.756c.06-.689 1.581-16.832 5.857-21.108z"/><path d="M19.327 19.323c0-6.044 10.337-18.54 10.78-19.068A.7.7 0 0 1 30.641 0c.204 0 .4.094.535.255.442.527 10.78 13.024 10.78 19.068h-1.394c0-4.812-7.787-14.851-9.921-17.52-2.134 2.669-9.92 12.708-9.92 17.52zM20.721 40.677c0 4.812 7.787 14.852 9.92 17.52 2.135-2.669 9.922-12.708 9.922-17.52h1.394c0 6.044-10.338 18.541-10.78 19.068a.7.7 0 0 1-.535.255.7.7 0 0 1-.536-.255c-.442-.527-10.779-13.023-10.779-19.068z"/><path d="M15.093 30.45c-4.276-4.275-5.798-20.419-5.857-21.107a.704.704 0 0 1 .756-.757c.689.06 16.832 1.582 21.108 5.858l-.986.986c-3.4-3.4-16.007-4.999-19.4-5.373.375 3.392 1.973 16.007 5.374 19.408zM31.177 44.563c3.4 3.4 16.007 4.998 19.407 5.372-.374-3.392-1.972-15.999-5.372-19.4l.986-.985c4.276 4.276 5.797 20.42 5.857 21.108a.704.704 0 0 1-.757.756c-.688-.06-16.832-1.58-21.108-5.857z"/><path d="M30.819 45.591c-8.586 0-15.574-6.988-15.574-15.574s6.988-15.574 15.574-15.574 15.574 6.988 15.574 15.574-6.988 15.574-15.574 15.574m0-29.745c-7.812 0-14.18 6.359-14.18 14.18s6.359 14.18 14.18 14.18c7.812 0 14.18-6.36 14.18-14.18 0-7.821-6.36-14.18-14.18-14.18"/><path stroke="#fff" d="M30.82 33.104a3.084 3.084 0 0 1-3.08-3.078 3.086 3.086 0 0 1 3.08-3.088 3.094 3.094 0 0 1 3.087 3.088 3.086 3.086 0 0 1-3.088 3.078Zm0-5.772a2.69 2.69 0 0 0-2.686 2.694 2.684 2.684 0 0 0 2.685 2.684 2.69 2.69 0 0 0 2.693-2.684 2.693 2.693 0 0 0-2.693-2.694Z"/><path d="M86.991 21.45q0-.96-.18-1.35-.15-.42-.9-.42v-.18h4.56v.18q-.72 0-.9.42-.18.39-.18 1.35v17.1q0 .96.18 1.38.18.39.9.39v.18h-4.56v-.18q.75 0 .9-.39.18-.42.18-1.38zm5.097 22.68q.48.09 1.02.18t1.14.09q1.05 0 1.98-.45.96-.45 1.5-1.8l.75-1.92-5.34-13.38q-.36-.9-.69-1.35-.33-.48-.99-.48v-.18h4.86v.18q-.81 0-.9.54-.06.51.27 1.29l4.05 10.26 4.019-10.23q.15-.39.24-.72t.06-.57q0-.27-.18-.42-.15-.15-.51-.15v-.18h2.61v.18q-.48 0-.81.57-.33.54-.69 1.41l-6.03 15.3q-.48 1.26-1.23 2.07t-1.62 1.26q-.84.45-1.77.63-.9.18-1.74.18zm27.831-8.79q-.66 2.46-2.43 3.9-1.74 1.44-4.11 1.44-1.5 0-2.79-.6-1.26-.6-2.19-1.65-.9-1.08-1.44-2.55-.51-1.47-.51-3.21t.51-3.21 1.41-2.52q.9-1.08 2.13-1.68 1.26-.6 2.73-.6 1.2 0 2.28.42t1.95 1.2q.87.75 1.5 1.86.63 1.08.9 2.4h-10.89q-.06.42-.09.9-.03.45-.03.93 0 1.68.39 3.06.39 1.35 1.08 2.31.72.93 1.71 1.44 1.02.51 2.25.51 1.92 0 3.39-1.14 1.47-1.17 2.07-3.24zm-6.54-10.11q-1.59 0-2.73 1.26-1.11 1.23-1.56 3.39h8.4q-.45-2.25-1.53-3.45-1.05-1.2-2.58-1.2m9.434 1.41q0-.93-.21-1.26-.18-.36-.72-.36v-.18h3.06v5.19q.48-1.23 1.2-2.22.72-1.02 1.56-1.71.87-.69 1.8-1.05.93-.39 1.83-.39.87 0 1.62.36.78.36 1.35 1.14.57.75.9 1.95.36 1.2.36 2.85v7.74q0 .93.21 1.29.21.33.72.33v.18h-4.26v-.18q.54 0 .72-.33.21-.36.21-1.26v-8.07q0-1.29-.21-2.19-.21-.93-.6-1.5-.36-.57-.87-.81-.51-.27-1.08-.27-.75 0-1.56.39-.78.39-1.5 1.11t-1.32 1.71q-.57.96-.9 2.13v7.47q0 .93.21 1.29.21.33.72.33v.18h-4.17v-.18q.54 0 .72-.33.21-.36.21-1.29zm22.766-1.98q1.02 0 1.95.27.93.24 1.71.72l3.54-1.02.06.06v1.62h-.06l-3.21-.45q1.05.72 1.65 1.74.63 1.02.63 2.28 0 1.08-.48 1.98t-1.32 1.59q-.84.66-1.95 1.05-1.11.36-2.37.36-2.19 0-3.87-1.08-.54.45-.87.96-.33.48-.33.9 0 1.2 3.27 1.38l4.53.27q4.38.27 4.38 3.51 0 1.26-.63 2.31-.6 1.08-1.68 1.86-1.05.78-2.52 1.2-1.44.45-3.15.45-1.35 0-2.52-.3-1.17-.27-2.01-.81t-1.32-1.29a3.05 3.05 0 0 1-.48-1.68q0-2.22 2.79-3.66-1.02-.33-1.62-.93t-.6-1.41q0-.72.54-1.47.57-.75 1.8-1.59a5.4 5.4 0 0 1-1.44-1.65q-.51-.96-.51-2.1 0-1.08.48-2.01t1.32-1.59q.84-.69 1.92-1.08 1.11-.39 2.37-.39m.06.57q-1.74 0-2.82 1.2-1.05 1.17-1.05 3.33 0 2.19 1.08 3.36t2.85 1.17 2.82-1.14 1.05-3.3q0-2.19-1.08-3.39-1.08-1.23-2.85-1.23m-3.75 13.8q-1.8 1.29-1.8 3.06 0 .87.42 1.59.42.75 1.14 1.26t1.68.78q.99.3 2.1.3 1.23 0 2.28-.33 1.08-.33 1.86-.93.81-.57 1.26-1.35.48-.78.48-1.65 0-1.05-.69-1.59t-2.19-.63l-5.31-.33q-.69-.06-1.23-.18m20.278-14.37q2.67 0 3.9 1.5t1.23 4.77v7.77q0 .96.21 1.29t.72.33v.18h-3.12v-3.96q-1.05 1.92-2.61 3.03t-3.33 1.11q-.93 0-1.71-.3-.78-.33-1.38-.87-.57-.57-.9-1.32t-.33-1.62q0-2.31 2.49-4.08 2.49-1.8 7.65-2.64-.09-2.37-.93-3.48t-2.52-1.11q-1.71 0-3.12 1.11-1.38 1.11-2.25 3.18h-.18v-2.4q1.05-1.17 2.67-1.83 1.65-.66 3.51-.66m2.82 5.85q-3.99.69-5.88 2.28-1.86 1.56-1.86 3.69 0 1.44.72 2.25.75.78 1.98.78 1.47 0 2.82-1.08t2.22-2.94zm5.96-3.87q0-.9-.21-1.26-.18-.36-.72-.36v-.18h3.06v5.4q.36-1.05.93-2.04.6-.99 1.38-1.77.81-.81 1.83-1.29t2.25-.48v2.46q-.81-.24-1.47-.24-1.71 0-2.97 1.26-1.23 1.26-1.77 3.36v7.2q0 .9.18 1.26.21.36.75.36v.18h-4.17v-.18q.54 0 .72-.36.21-.36.21-1.26zm15.183 17.49q.48.09 1.02.18t1.14.09q1.05 0 1.98-.45.96-.45 1.5-1.8l.75-1.92-5.34-13.38q-.36-.9-.69-1.35-.33-.48-.99-.48v-.18h4.86v.18q-.81 0-.9.54-.06.51.27 1.29l4.05 10.26 4.02-10.23q.15-.39.24-.72t.06-.57q0-.27-.18-.42-.15-.15-.51-.15v-.18h2.61v.18q-.48 0-.81.57-.33.54-.69 1.41l-6.03 15.3q-.48 1.26-1.23 2.07t-1.62 1.26q-.84.45-1.77.63-.9.18-1.74.18zm21.532-19.47q1.53 0 2.85.63 1.32.6 2.28 1.68.99 1.08 1.53 2.58.54 1.47.54 3.21 0 1.71-.54 3.18-.54 1.44-1.5 2.52-.93 1.05-2.25 1.65-1.29.57-2.85.57t-2.91-.6q-1.32-.6-2.28-1.65a8 8 0 0 1-1.5-2.52q-.54-1.47-.54-3.21t.54-3.21 1.5-2.55 2.25-1.68q1.32-.6 2.88-.6m.03.57q-1.11 0-2.01.54-.87.51-1.5 1.47t-.96 2.34q-.33 1.35-.33 3.06t.33 3.09q.36 1.38.99 2.37.63.96 1.5 1.5.9.51 2.01.51 1.08 0 1.95-.51.9-.54 1.5-1.5.63-.96.96-2.31.33-1.38.33-3.09t-.33-3.09-.96-2.34q-.63-.99-1.53-1.5-.87-.54-1.95-.54m15.904-.57q1.02 0 1.95.27.93.24 1.71.72l3.54-1.02.06.06v1.62h-.06l-3.21-.45q1.05.72 1.65 1.74.63 1.02.63 2.28 0 1.08-.48 1.98t-1.32 1.59q-.84.66-1.95 1.05-1.11.36-2.37.36-2.19 0-3.87-1.08-.54.45-.87.96-.33.48-.33.9 0 1.2 3.27 1.38l4.53.27q4.38.27 4.38 3.51 0 1.26-.63 2.31-.6 1.08-1.68 1.86-1.05.78-2.52 1.2-1.44.45-3.15.45-1.35 0-2.52-.3-1.17-.27-2.01-.81t-1.32-1.29a3.05 3.05 0 0 1-.48-1.68q0-2.22 2.79-3.66-1.02-.33-1.62-.93t-.6-1.41q0-.72.54-1.47.57-.75 1.8-1.59a5.4 5.4 0 0 1-1.44-1.65q-.51-.96-.51-2.1 0-1.08.48-2.01t1.32-1.59q.84-.69 1.92-1.08 1.11-.39 2.37-.39m.06.57q-1.74 0-2.82 1.2-1.05 1.17-1.05 3.33 0 2.19 1.08 3.36t2.85 1.17 2.82-1.14 1.05-3.3q0-2.19-1.08-3.39-1.08-1.23-2.85-1.23m-3.75 13.8q-1.8 1.29-1.8 3.06 0 .87.42 1.59.42.75 1.14 1.26t1.68.78q.99.3 2.1.3 1.23 0 2.28-.33 1.08-.33 1.86-.93.81-.57 1.26-1.35.48-.78.48-1.65 0-1.05-.69-1.59t-2.19-.63l-5.31-.33q-.69-.06-1.23-.18m20.279-14.37q2.67 0 3.9 1.5t1.23 4.77v7.77q0 .96.21 1.29t.72.33v.18h-3.12v-3.96q-1.05 1.92-2.61 3.03t-3.33 1.11q-.93 0-1.71-.3-.78-.33-1.38-.87-.57-.57-.9-1.32t-.33-1.62q0-2.31 2.49-4.08 2.49-1.8 7.65-2.64-.09-2.37-.93-3.48t-2.52-1.11q-1.71 0-3.12 1.11-1.38 1.11-2.25 3.18h-.18v-2.4q1.05-1.17 2.67-1.83 1.65-.66 3.51-.66m2.82 5.85q-3.99.69-5.88 2.28-1.86 1.56-1.86 3.69 0 1.44.72 2.25.75.78 1.98.78 1.47 0 2.82-1.08t2.22-2.94z"/></g></g></g><defs><clipPath id="a"><path fill="#fff" d="M.65 0h247v60H.65z"/></clipPath><clipPath id="b"><path fill="#fff" d="M.65 0h247v60H.65z"/></clipPath><clipPath id="c"><path fill="#fff" d="M.65 0h247v60H.65z"/></clipPath></defs></svg>