<svg xmlns="http://www.w3.org/2000/svg" width="172" height="39" fill="none"><path stroke="#fff" stroke-linecap="square" stroke-linejoin="round" stroke-width="1.185" d="M4.565 20.63c1.504 1.617 5.94 4.87 11.66 4.942 5.721.073 9.793-3.264 11.114-4.942M19.282 12.462a3.233 3.233 0 1 1-6.467 0 3.233 3.233 0 0 1 6.467 0ZM10.168 19.3h11.454M10.168 29.464h11.454"/><path fill="#fff" d="M42.106 10.06q-.83 0-1.002.573t.23 1.231l5.438 9.276 5.64-9.39q.201-.315.286-.601.086-.315.03-.544a.54.54 0 0 0-.23-.4q-.172-.144-.544-.144v-.172h2.977v.172q-.486 0-.944.601-.459.572-.916 1.317l-5.84 9.705v6.384q0 .858.143 1.317.142.458.887.458v.085H43.91v-.085q.744 0 .887-.458.143-.459.143-1.317v-6.07l-5.983-10.105a10 10 0 0 0-.945-1.288q-.429-.544-.973-.544v-.172h5.067zm17.86 4.753q1.46 0 2.72.601a6.45 6.45 0 0 1 2.175 1.603q.945 1.031 1.46 2.462.516 1.404.516 3.064 0 1.631-.516 3.034a7.6 7.6 0 0 1-1.431 2.405 6.3 6.3 0 0 1-2.147 1.574q-1.23.544-2.72.544a6.8 6.8 0 0 1-2.777-.572 6.6 6.6 0 0 1-2.175-1.575 7.6 7.6 0 0 1-1.432-2.404q-.515-1.404-.515-3.064t.515-3.063a7.5 7.5 0 0 1 1.431-2.433 6.5 6.5 0 0 1 2.148-1.603q1.26-.573 2.748-.573m.029.544q-1.06 0-1.919.515-.83.487-1.431 1.403-.6.916-.916 2.233-.315 1.288-.315 2.92t.315 2.949q.343 1.317.945 2.261.6.916 1.431 1.432a3.8 3.8 0 0 0 1.918.486q1.03 0 1.86-.486a4.3 4.3 0 0 0 1.432-1.432q.601-.915.916-2.204.315-1.316.315-2.949 0-1.63-.315-2.948-.315-1.317-.916-2.233-.6-.945-1.46-1.432a3.46 3.46 0 0 0-1.86-.515m15.177-.544q.973 0 1.86.258a5.9 5.9 0 0 1 1.632.687l3.378-.973.058.057v1.546h-.058l-3.063-.43a5.2 5.2 0 0 1 1.575 1.66q.6.975.6 2.176 0 1.03-.457 1.89a5 5 0 0 1-1.26 1.517 6.4 6.4 0 0 1-1.86 1.002 7.3 7.3 0 0 1-2.262.344q-2.09 0-3.693-1.031-.516.43-.83.916-.315.458-.315.859 0 1.145 3.12 1.317l4.323.257q4.18.258 4.18 3.35 0 1.202-.602 2.204a5.44 5.44 0 0 1-1.603 1.775q-1.002.744-2.404 1.145-1.376.43-3.006.43-1.289 0-2.405-.287-1.117-.258-1.918-.773a4.1 4.1 0 0 1-1.26-1.23 2.9 2.9 0 0 1-.458-1.604q0-2.118 2.662-3.492-.973-.315-1.545-.888-.573-.573-.573-1.345 0-.687.515-1.403.545-.716 1.718-1.517a5.15 5.15 0 0 1-1.374-1.575 4.2 4.2 0 0 1-.487-2.004q0-1.03.458-1.918a4.6 4.6 0 0 1 1.26-1.517 6.2 6.2 0 0 1 1.832-1.03 6.8 6.8 0 0 1 2.262-.373m.057.544q-1.66 0-2.691 1.145-1.002 1.117-1.002 3.178 0 2.09 1.03 3.206t2.72 1.117 2.691-1.088 1.002-3.15q0-2.089-1.03-3.234-1.03-1.174-2.72-1.174M71.65 28.526q-1.717 1.23-1.717 2.92 0 .83.4 1.517.401.716 1.088 1.202.687.487 1.604.745.944.286 2.003.286a7.2 7.2 0 0 0 2.176-.315q1.03-.315 1.775-.887a4.05 4.05 0 0 0 1.203-1.289 2.96 2.96 0 0 0 .457-1.574q0-1.002-.658-1.517-.658-.516-2.09-.602l-5.067-.314a9 9 0 0 1-1.174-.172m19.351-13.713q2.549 0 3.722 1.431t1.174 4.552v7.415q0 .915.2 1.23.201.315.687.316v.171h-2.977V26.15q-1.003 1.832-2.49 2.891-1.49 1.06-3.179 1.06a4.5 4.5 0 0 1-1.631-.287 4.7 4.7 0 0 1-1.317-.83 4.1 4.1 0 0 1-.86-1.26 3.8 3.8 0 0 1-.314-1.546q0-2.204 2.376-3.893 2.377-1.718 7.3-2.52-.086-2.26-.887-3.32-.802-1.06-2.405-1.06-1.632 0-2.977 1.06-1.317 1.06-2.147 3.034h-.172v-2.29q1.002-1.116 2.548-1.746a8.9 8.9 0 0 1 3.35-.63m2.691 5.582q-3.807.66-5.61 2.176-1.776 1.489-1.776 3.521 0 1.375.687 2.148.715.744 1.89.744 1.403 0 2.69-1.03 1.29-1.032 2.12-2.806zm5.201 6.213q.83 1.431 2.062 2.204 1.23.744 2.92.744 1.803 0 2.891-.801 1.116-.802 1.117-2.09 0-1.002-.688-1.632-.657-.63-1.66-1.116a23 23 0 0 0-2.176-.916 15 15 0 0 1-2.147-1.002 6.3 6.3 0 0 1-1.69-1.374q-.658-.802-.658-2.033 0-1.718 1.318-2.748 1.345-1.03 3.521-1.03 2.806 0 4.666 1.688v1.804h-.172q-.944-1.546-1.975-2.233-1.03-.716-2.376-.716-.716 0-1.374.2-.63.173-1.117.516-.458.314-.744.773-.258.458-.258.973 0 .86.659 1.431a8.5 8.5 0 0 0 1.66 1.002q1.002.43 2.176.86 1.174.429 2.147 1.03a5.7 5.7 0 0 1 1.66 1.488q.688.86.688 2.176 0 1.003-.401 1.804a4 4 0 0 1-1.145 1.345q-.716.545-1.747.859a8 8 0 0 1-2.204.286q-1.575 0-2.863-.43a24 24 0 0 1-2.262-.944v-2.118zm11.766-11.623h1.432V12.58l2.204-.372v2.777h5.582v.63h-5.582V25.92q0 1.689.487 2.462.486.744 1.546.744.944 0 2.089-.573a5.65 5.65 0 0 0 1.976-1.66l.143.086q-1.088 1.431-2.491 2.29-1.403.83-2.719.83-1.518 0-2.377-1.116t-.858-3.092V15.615h-1.432zm11.188-3.55q0-.658.429-1.06.43-.4 1.145-.4.687 0 1.088.4.429.402.429 1.06t-.429 1.06q-.4.4-1.116.4t-1.146-.4q-.4-.402-.4-1.06m.458 5.268q0-.86-.201-1.203-.171-.343-.687-.343v-.172h3.092V28.21q0 .858.172 1.202.2.345.715.344v.171h-3.979v-.171q.516 0 .687-.344.201-.344.201-1.202zm12.396-1.317q-1.089 0-1.976.486a4.5 4.5 0 0 0-1.517 1.375q-.63.858-.973 2.118-.344 1.26-.344 2.805 0 1.575.372 2.892.372 1.288 1.031 2.204a5.2 5.2 0 0 0 1.632 1.403q.945.486 2.118.487.945 0 1.804-.315a5.7 5.7 0 0 0 1.546-.916q.716-.601 1.202-1.432a6 6 0 0 0 .744-1.832l.172.029a7.7 7.7 0 0 1-.887 2.233 6.5 6.5 0 0 1-1.403 1.717 6.3 6.3 0 0 1-1.832 1.088 6.2 6.2 0 0 1-2.176.372q-1.432 0-2.662-.572a6.3 6.3 0 0 1-2.09-1.603q-.86-1.031-1.374-2.434-.487-1.403-.487-3.063 0-1.689.487-3.063.515-1.403 1.402-2.405a6.2 6.2 0 0 1 2.148-1.574 6.5 6.5 0 0 1 2.719-.573q1.517 0 2.834.601 1.317.602 2.405 1.775v2.29h-.172q-.887-2.09-2.032-3.091t-2.691-1.002m17.864-5.325q-.744 0-.83.601-.057.6.429 1.288l4.466 6.613 4.953-6.813q.228-.315.315-.63.114-.315.057-.544a.5.5 0 0 0-.258-.372q-.228-.143-.687-.143v-.172h3.292v.172q-.486 0-.973.544-.486.543-1.031 1.317l-5.238 7.243 6.212 9.16q.344.488.83.974.486.458 1.145.458v.171h-5.21v-.171q.801 0 .887-.601.087-.601-.4-1.289l-4.839-7.1-5.21 7.3a2.6 2.6 0 0 0-.343.63q-.115.287-.086.544a.6.6 0 0 0 .286.373q.23.143.687.143v.171h-3.292v-.171q.487 0 .973-.544.487-.544 1.06-1.317l5.525-7.73-5.869-8.674a6.3 6.3 0 0 0-.83-.944 1.57 1.57 0 0 0-1.145-.487v-.172h5.124z"/></svg>