<svg xmlns="http://www.w3.org/2000/svg" width="309" height="60" fill="none"><g clip-path="url(#a)"><g clip-path="url(#b)"><g clip-path="url(#c)"><path stroke="#fff" stroke-width="1.2" d="M55.585 20.24c0 8.078-6.504 14.62-14.52 14.62s-14.52-6.542-14.52-14.62S33.05 5.62 41.066 5.62s14.52 6.542 14.52 14.62Z"/><path stroke="#fff" stroke-width="1.2" d="M43.01 15.22c0 8.079-6.504 14.62-14.52 14.62S13.97 23.3 13.97 15.22 20.476.6 28.49.6s14.52 6.542 14.52 14.62Z"/><path stroke="#fff" stroke-width="1.2" d="M57.497 36.683c0 8.078-6.504 14.62-14.52 14.62-8.014 0-14.519-6.542-14.519-14.62s6.505-14.62 14.52-14.62 14.52 6.542 14.52 14.62Z"/><path stroke="#fff" stroke-width="1.2" d="M46.36 44.78c0 8.078-6.505 14.62-14.52 14.62s-14.52-6.542-14.52-14.62 6.505-14.62 14.52-14.62 14.52 6.542 14.52 14.62Z"/><path stroke="#fff" stroke-width="1.2" d="M32.181 38.506c0 8.078-6.504 14.62-14.52 14.62s-14.52-6.542-14.52-14.62 6.505-14.62 14.52-14.62 14.52 6.542 14.52 14.62Z"/><path stroke="#fff" stroke-width="1.2" d="M30.29 25.158c0 8.078-6.505 14.62-14.52 14.62S1.25 33.236 1.25 25.158c0-8.079 6.504-14.62 14.52-14.62s14.52 6.541 14.52 14.62Z"/><path fill="#fff" d="M84.437 21.38q0-.96-.18-1.35-.18-.42-.9-.42v-.18h7.17q1.59 0 2.88.33 1.32.33 2.22.96.93.63 1.41 1.5.51.87.51 1.95 0 .99-.42 1.83t-1.17 1.47q-.72.6-1.77.93-1.02.33-2.25.33-1.35 0-2.79-.39-1.41-.39-2.31-1.08v11.22q0 .96.18 1.38.18.39.9.39v.18h-4.56v-.18q.72 0 .9-.39.18-.42.18-1.38zm2.4 5.13q.72.6 1.92.96 1.23.36 2.4.36.84 0 1.56-.21.72-.24 1.26-.69.54-.48.84-1.2t.3-1.68q0-1.98-1.32-2.97-1.29-.99-3.72-.99h-3.24zm13.559.06q0-.9-.21-1.26-.18-.36-.72-.36v-.18h3.06v5.4q.36-1.05.93-2.04.6-.99 1.38-1.77.81-.81 1.83-1.29t2.25-.48v2.46q-.81-.24-1.47-.24-1.71 0-2.97 1.26-1.23 1.26-1.77 3.36v7.2q0 .9.18 1.26.21.36.75.36v.18h-4.17v-.18q.54 0 .72-.36.21-.36.21-1.26zm10.213-5.52q0-.69.45-1.11t1.2-.42q.72 0 1.14.42.45.42.45 1.11t-.45 1.11q-.42.42-1.17.42t-1.2-.42q-.42-.42-.42-1.11m.48 5.52q0-.9-.21-1.26-.18-.36-.72-.36v-.18h3.24v13.86q0 .9.18 1.26.21.36.75.36v.18h-4.17v-.18q.54 0 .72-.36.21-.36.21-1.26zm8.309-1.62q-.81 0-.87.54-.06.51.24 1.29l4.05 10.32 4.05-10.29q.15-.39.24-.72t.06-.57q0-.27-.18-.42-.15-.15-.51-.15v-.18h2.61v.18q-.51 0-.84.57-.33.54-.66 1.41l-5.37 13.68h-.51l-5.46-13.83q-.36-.9-.69-1.35-.33-.48-.99-.48v-.18h4.83zm17.657-.36q2.67 0 3.9 1.5t1.23 4.77v7.77q0 .96.21 1.29t.72.33v.18h-3.12v-3.96q-1.05 1.92-2.61 3.03t-3.33 1.11q-.93 0-1.71-.3-.78-.33-1.38-.87-.57-.57-.9-1.32t-.33-1.62q0-2.31 2.49-4.08 2.49-1.8 7.65-2.64-.09-2.37-.93-3.48t-2.52-1.11q-1.71 0-3.12 1.11-1.38 1.11-2.25 3.18h-.18v-2.4q1.05-1.17 2.67-1.83 1.65-.66 3.51-.66m2.82 5.85q-3.99.69-5.88 2.28-1.86 1.56-1.86 3.69 0 1.44.72 2.25.75.78 1.98.78 1.47 0 2.82-1.08t2.22-2.94zm4.685-5.67h1.5v-2.52l2.31-.39v2.91h5.85v.66h-5.85v10.8q0 1.77.51 2.58.51.78 1.62.78.99 0 2.19-.6t2.07-1.74l.15.09q-1.14 1.5-2.61 2.4-1.47.87-2.85.87-1.59 0-2.49-1.17t-.9-3.24V25.43h-1.5zm24.397 10.5q-.66 2.46-2.43 3.9-1.74 1.44-4.11 1.44-1.5 0-2.79-.6-1.26-.6-2.19-1.65-.9-1.08-1.44-2.55-.51-1.47-.51-3.21t.51-3.21 1.41-2.52q.9-1.08 2.13-1.68 1.26-.6 2.73-.6 1.2 0 2.28.42t1.95 1.2q.87.75 1.5 1.86.63 1.08.9 2.4h-10.89q-.06.42-.09.9-.03.45-.03.93 0 1.68.39 3.06.39 1.35 1.08 2.31.72.93 1.71 1.44 1.02.51 2.25.51 1.92 0 3.39-1.14 1.47-1.17 2.07-3.24zm-6.54-10.11q-1.59 0-2.73 1.26-1.11 1.23-1.56 3.39h8.4q-.45-2.25-1.53-3.45-1.05-1.2-2.58-1.2m13.982 18.9q.48.09 1.02.18t1.14.09q1.05 0 1.98-.45.96-.45 1.5-1.8l.75-1.92-5.34-13.38q-.36-.9-.69-1.35-.33-.48-.99-.48v-.18h4.86v.18q-.81 0-.9.54-.06.51.27 1.29l4.05 10.26 4.02-10.23q.15-.39.24-.72t.06-.57q0-.27-.18-.42-.15-.15-.51-.15v-.18h2.61v.18q-.48 0-.81.57-.33.54-.69 1.41l-6.03 15.3q-.48 1.26-1.23 2.07t-1.62 1.26q-.84.45-1.77.63-.9.18-1.74.18zm21.532-19.47q1.53 0 2.85.63 1.32.6 2.28 1.68.99 1.08 1.53 2.58.54 1.47.54 3.21 0 1.71-.54 3.18-.54 1.44-1.5 2.52-.93 1.05-2.25 1.65-1.29.57-2.85.57t-2.91-.6q-1.32-.6-2.28-1.65a8 8 0 0 1-1.5-2.52q-.54-1.47-.54-3.21t.54-3.21 1.5-2.55 2.25-1.68q1.32-.6 2.88-.6m.03.57q-1.11 0-2.01.54-.87.51-1.5 1.47t-.96 2.34q-.33 1.35-.33 3.06t.33 3.09q.36 1.38.99 2.37.63.96 1.5 1.5.9.51 2.01.51 1.08 0 1.95-.51.9-.54 1.5-1.5.63-.96.96-2.31.33-1.38.33-3.09t-.33-3.09-.96-2.34q-.63-.99-1.53-1.5-.87-.54-1.95-.54m15.905-.57q1.02 0 1.95.27.93.24 1.71.72l3.54-1.02.06.06v1.62h-.06l-3.21-.45q1.05.72 1.65 1.74.63 1.02.63 2.28 0 1.08-.48 1.98t-1.32 1.59q-.84.66-1.95 1.05-1.11.36-2.37.36-2.19 0-3.87-1.08-.54.45-.87.96-.33.48-.33.9 0 1.2 3.27 1.38l4.53.27q4.38.27 4.38 3.51 0 1.26-.63 2.31-.6 1.08-1.68 1.86-1.05.78-2.52 1.2-1.44.45-3.15.45-1.35 0-2.52-.3-1.17-.27-2.01-.81t-1.32-1.29a3.05 3.05 0 0 1-.48-1.68q0-2.22 2.79-3.66-1.02-.33-1.62-.93t-.6-1.41q0-.72.54-1.47.57-.75 1.8-1.59a5.4 5.4 0 0 1-1.44-1.65q-.51-.96-.51-2.1 0-1.08.48-2.01t1.32-1.59q.84-.69 1.92-1.08 1.11-.39 2.37-.39m.06.57q-1.74 0-2.82 1.2-1.05 1.17-1.05 3.33 0 2.19 1.08 3.36t2.85 1.17 2.82-1.14 1.05-3.3q0-2.19-1.08-3.39-1.08-1.23-2.85-1.23m-3.75 13.8q-1.8 1.29-1.8 3.06 0 .87.42 1.59.42.75 1.14 1.26t1.68.78q.99.3 2.1.3 1.23 0 2.28-.33 1.08-.33 1.86-.93.81-.57 1.26-1.35.48-.78.48-1.65 0-1.05-.69-1.59t-2.19-.63l-5.31-.33q-.69-.06-1.23-.18m20.278-14.37q2.67 0 3.9 1.5t1.23 4.77v7.77q0 .96.21 1.29t.72.33v.18h-3.12v-3.96q-1.05 1.92-2.61 3.03t-3.33 1.11q-.93 0-1.71-.3-.78-.33-1.38-.87-.57-.57-.9-1.32t-.33-1.62q0-2.31 2.49-4.08 2.49-1.8 7.65-2.64-.09-2.37-.93-3.48t-2.52-1.11q-1.71 0-3.12 1.11-1.38 1.11-2.25 3.18h-.18v-2.4q1.05-1.17 2.67-1.83 1.65-.66 3.51-.66m2.82 5.85q-3.99.69-5.88 2.28-1.86 1.56-1.86 3.69 0 1.44.72 2.25.75.78 1.98.78 1.47 0 2.82-1.08t2.22-2.94zm19.39-5.25q-1.14 0-2.07.51t-1.59 1.44q-.66.9-1.02 2.22t-.36 2.94q0 1.65.39 3.03.39 1.35 1.08 2.31.72.93 1.71 1.47.99.51 2.22.51.99 0 1.89-.33.9-.36 1.62-.96.75-.63 1.26-1.5.54-.87.78-1.92l.18.03q-.3 1.29-.93 2.34-.6 1.05-1.47 1.8-.84.72-1.92 1.14-1.05.39-2.28.39-1.5 0-2.79-.6a6.6 6.6 0 0 1-2.19-1.68q-.9-1.08-1.44-2.55-.51-1.47-.51-3.21 0-1.77.51-3.21.54-1.47 1.47-2.52.96-1.08 2.25-1.65 1.32-.6 2.85-.6 1.59 0 2.97.63t2.52 1.86v2.4h-.18q-.93-2.19-2.13-3.24t-2.82-1.05m8.748-4.56q0-.9-.21-1.26-.18-.36-.72-.36v-.18h3.24v19.8q0 .9.12 1.26t.81.36v.18h-4.17v-.18q.69 0 .81-.36t.12-1.26zm12.577 3.96q2.67 0 3.9 1.5t1.23 4.77v7.77q0 .96.21 1.29t.72.33v.18h-3.12v-3.96q-1.05 1.92-2.61 3.03t-3.33 1.11q-.93 0-1.71-.3-.78-.33-1.38-.87-.57-.57-.9-1.32t-.33-1.62q0-2.31 2.49-4.08 2.49-1.8 7.65-2.64-.09-2.37-.93-3.48t-2.52-1.11q-1.71 0-3.12 1.11-1.38 1.11-2.25 3.18h-.18v-2.4q1.05-1.17 2.67-1.83 1.65-.66 3.51-.66m2.82 5.85q-3.99.69-5.88 2.28-1.86 1.56-1.86 3.69 0 1.44.72 2.25.75.78 1.98.78 1.47 0 2.82-1.08t2.22-2.94zm5.45 6.51q.87 1.5 2.16 2.31 1.29.78 3.06.78 1.89 0 3.03-.84 1.17-.84 1.17-2.19 0-1.05-.72-1.71-.69-.66-1.74-1.17t-2.28-.96q-1.2-.45-2.25-1.05t-1.77-1.44q-.69-.84-.69-2.13 0-1.8 1.38-2.88 1.41-1.08 3.69-1.08 2.94 0 4.89 1.77v1.89h-.18q-.99-1.62-2.07-2.34-1.08-.75-2.49-.75-.75 0-1.44.21-.66.18-1.17.54-.48.33-.78.81-.27.48-.27 1.02 0 .9.69 1.5.72.57 1.74 1.05 1.05.45 2.28.9t2.25 1.08q1.05.63 1.74 1.56.72.9.72 2.28 0 1.05-.42 1.89-.42.81-1.2 1.41-.75.57-1.83.9-1.05.3-2.31.3-1.65 0-3-.45-1.32-.48-2.37-.99v-2.22zm13.418 0q.87 1.5 2.16 2.31 1.29.78 3.06.78 1.89 0 3.03-.84 1.17-.84 1.17-2.19 0-1.05-.72-1.71-.69-.66-1.74-1.17t-2.28-.96q-1.2-.45-2.25-1.05t-1.77-1.44q-.69-.84-.69-2.13 0-1.8 1.38-2.88 1.41-1.08 3.69-1.08 2.94 0 4.89 1.77v1.89h-.18q-.99-1.62-2.07-2.34-1.08-.75-2.49-.75-.75 0-1.44.21-.66.18-1.17.54-.48.33-.78.81-.27.48-.27 1.02 0 .9.69 1.5.72.57 1.74 1.05 1.05.45 2.28.9t2.25 1.08q1.05.63 1.74 1.56.72.9.72 2.28 0 1.05-.42 1.89-.42.81-1.2 1.41-.75.57-1.83.9-1.05.3-2.31.3-1.65 0-3-.45-1.32-.48-2.37-.99v-2.22z"/></g></g></g><defs><clipPath id="a"><path fill="#fff" d="M.65 0h308v60H.65z"/></clipPath><clipPath id="b"><path fill="#fff" d="M.65 0h308v60H.65z"/></clipPath><clipPath id="c"><path fill="#fff" d="M.65 0h308v60H.65z"/></clipPath></defs></svg>