<svg width="309" height="60" viewBox="0 0 309 60" fill="none" xmlns="http://www.w3.org/2000/svg">
<g clip-path="url(#clip0_1_3197)">
<g clip-path="url(#clip1_1_3197)">
<g clip-path="url(#clip2_1_3197)">
<path d="M55.5853 20.2398C55.5853 28.318 49.0809 34.8599 41.0656 34.8599C33.0503 34.8599 26.5459 28.318 26.5459 20.2398C26.5459 12.1615 33.0503 5.61963 41.0656 5.61963C49.0809 5.61963 55.5853 12.1615 55.5853 20.2398Z" stroke="white" stroke-width="1.2"/>
<path d="M43.0101 15.2202C43.0101 23.2985 36.5057 29.8404 28.4904 29.8404C20.4751 29.8404 13.9707 23.2985 13.9707 15.2202C13.9707 7.142 20.4751 0.600098 28.4904 0.600098C36.5057 0.600098 43.0101 7.142 43.0101 15.2202Z" stroke="white" stroke-width="1.2"/>
<path d="M57.4974 36.6827C57.4974 44.7609 50.993 51.3028 42.9777 51.3028C34.9625 51.3028 28.458 44.7609 28.458 36.6827C28.458 28.6045 34.9625 22.0625 42.9777 22.0625C50.993 22.0625 57.4974 28.6045 57.4974 36.6827Z" stroke="white" stroke-width="1.2"/>
<path d="M46.3597 44.7798C46.3597 52.8581 39.8553 59.4 31.84 59.4C23.8248 59.4 17.3203 52.8581 17.3203 44.7798C17.3203 36.7016 23.8248 30.1597 31.84 30.1597C39.8553 30.1597 46.3597 36.7016 46.3597 44.7798Z" stroke="white" stroke-width="1.2"/>
<path d="M32.181 38.5058C32.181 46.584 25.6766 53.1259 17.6613 53.1259C9.64604 53.1259 3.1416 46.584 3.1416 38.5058C3.1416 30.4276 9.64604 23.8857 17.6613 23.8857C25.6766 23.8857 32.181 30.4276 32.181 38.5058Z" stroke="white" stroke-width="1.2"/>
<path d="M30.2894 25.1577C30.2894 33.236 23.785 39.7779 15.7697 39.7779C7.75443 39.7779 1.25 33.236 1.25 25.1577C1.25 17.0795 7.75443 10.5376 15.7697 10.5376C23.785 10.5376 30.2894 17.0795 30.2894 25.1577Z" stroke="white" stroke-width="1.2"/>
<path d="M84.4374 21.3801C84.4374 20.7401 84.3774 20.2901 84.2574 20.0301C84.1374 19.7501 83.8374 19.6101 83.3574 19.6101V19.4301H90.5274C91.5874 19.4301 92.5474 19.5401 93.4074 19.7601C94.2874 19.9801 95.0274 20.3001 95.6274 20.7201C96.2474 21.1401 96.7174 21.6401 97.0374 22.2201C97.3774 22.8001 97.5474 23.4501 97.5474 24.1701C97.5474 24.8301 97.4074 25.4401 97.1274 26.0001C96.8474 26.5601 96.4574 27.0501 95.9574 27.4701C95.4774 27.8701 94.8874 28.1801 94.1874 28.4001C93.5074 28.6201 92.7574 28.7301 91.9374 28.7301C91.0374 28.7301 90.1074 28.6001 89.1474 28.3401C88.2074 28.0801 87.4374 27.7201 86.8374 27.2601V38.4801C86.8374 39.1201 86.8974 39.5801 87.0174 39.8601C87.1374 40.1201 87.4374 40.2501 87.9174 40.2501V40.4301H83.3574V40.2501C83.8374 40.2501 84.1374 40.1201 84.2574 39.8601C84.3774 39.5801 84.4374 39.1201 84.4374 38.4801V21.3801ZM86.8374 26.5101C87.3174 26.9101 87.9574 27.2301 88.7574 27.4701C89.5774 27.7101 90.3774 27.8301 91.1574 27.8301C91.7174 27.8301 92.2374 27.7601 92.7174 27.6201C93.1974 27.4601 93.6174 27.2301 93.9774 26.9301C94.3374 26.6101 94.6174 26.2101 94.8174 25.7301C95.0174 25.2501 95.1174 24.6901 95.1174 24.0501C95.1174 22.7301 94.6774 21.7401 93.7974 21.0801C92.9374 20.4201 91.6974 20.0901 90.0774 20.0901H86.8374V26.5101ZM100.396 26.5701C100.396 25.9701 100.326 25.5501 100.186 25.3101C100.066 25.0701 99.8257 24.9501 99.4657 24.9501V24.7701H102.526V30.1701C102.766 29.4701 103.076 28.7901 103.456 28.1301C103.856 27.4701 104.316 26.8801 104.836 26.3601C105.376 25.8201 105.986 25.3901 106.666 25.0701C107.346 24.7501 108.096 24.5901 108.916 24.5901V27.0501C108.376 26.8901 107.886 26.8101 107.446 26.8101C106.306 26.8101 105.316 27.2301 104.476 28.0701C103.656 28.9101 103.066 30.0301 102.706 31.4301V38.6301C102.706 39.2301 102.766 39.6501 102.886 39.8901C103.026 40.1301 103.276 40.2501 103.636 40.2501V40.4301H99.4657V40.2501C99.8257 40.2501 100.066 40.1301 100.186 39.8901C100.326 39.6501 100.396 39.2301 100.396 38.6301V26.5701ZM110.609 21.0501C110.609 20.5901 110.759 20.2201 111.059 19.9401C111.359 19.6601 111.759 19.5201 112.259 19.5201C112.739 19.5201 113.119 19.6601 113.399 19.9401C113.699 20.2201 113.849 20.5901 113.849 21.0501C113.849 21.5101 113.699 21.8801 113.399 22.1601C113.119 22.4401 112.729 22.5801 112.229 22.5801C111.729 22.5801 111.329 22.4401 111.029 22.1601C110.749 21.8801 110.609 21.5101 110.609 21.0501ZM111.089 26.5701C111.089 25.9701 111.019 25.5501 110.879 25.3101C110.759 25.0701 110.519 24.9501 110.159 24.9501V24.7701H113.399V38.6301C113.399 39.2301 113.459 39.6501 113.579 39.8901C113.719 40.1301 113.969 40.2501 114.329 40.2501V40.4301H110.159V40.2501C110.519 40.2501 110.759 40.1301 110.879 39.8901C111.019 39.6501 111.089 39.2301 111.089 38.6301V26.5701ZM119.398 24.9501C118.858 24.9501 118.568 25.1301 118.528 25.4901C118.488 25.8301 118.568 26.2601 118.768 26.7801L122.818 37.1001L126.868 26.8101C126.968 26.5501 127.048 26.3101 127.108 26.0901C127.168 25.8701 127.188 25.6801 127.168 25.5201C127.168 25.3401 127.108 25.2001 126.988 25.1001C126.888 25.0001 126.718 24.9501 126.478 24.9501V24.7701H129.088V24.9501C128.748 24.9501 128.468 25.1401 128.248 25.5201C128.028 25.8801 127.808 26.3501 127.588 26.9301L122.218 40.6101H121.708L116.248 26.7801C116.008 26.1801 115.778 25.7301 115.558 25.4301C115.338 25.1101 115.008 24.9501 114.568 24.9501V24.7701H119.398V24.9501ZM137.055 24.5901C138.835 24.5901 140.135 25.0901 140.955 26.0901C141.775 27.0901 142.185 28.6801 142.185 30.8601V38.6301C142.185 39.2701 142.255 39.7001 142.395 39.9201C142.535 40.1401 142.775 40.2501 143.115 40.2501V40.4301H139.995V36.4701C139.295 37.7501 138.425 38.7601 137.385 39.5001C136.345 40.2401 135.235 40.6101 134.055 40.6101C133.435 40.6101 132.865 40.5101 132.345 40.3101C131.825 40.0901 131.365 39.8001 130.965 39.4401C130.585 39.0601 130.285 38.6201 130.065 38.1201C129.845 37.6201 129.735 37.0801 129.735 36.5001C129.735 34.9601 130.565 33.6001 132.225 32.4201C133.885 31.2201 136.435 30.3401 139.875 29.7801C139.815 28.2001 139.505 27.0401 138.945 26.3001C138.385 25.5601 137.545 25.1901 136.425 25.1901C135.285 25.1901 134.245 25.5601 133.305 26.3001C132.385 27.0401 131.635 28.1001 131.055 29.4801H130.875V27.0801C131.575 26.3001 132.465 25.6901 133.545 25.2501C134.645 24.8101 135.815 24.5901 137.055 24.5901ZM139.875 30.4401C137.215 30.9001 135.255 31.6601 133.995 32.7201C132.755 33.7601 132.135 34.9901 132.135 36.4101C132.135 37.3701 132.375 38.1201 132.855 38.6601C133.355 39.1801 134.015 39.4401 134.835 39.4401C135.815 39.4401 136.755 39.0801 137.655 38.3601C138.555 37.6401 139.295 36.6601 139.875 35.4201V30.4401ZM144.56 24.7701H146.06V22.2501L148.37 21.8601V24.7701H154.22V25.4301H148.37V36.2301C148.37 37.4101 148.54 38.2701 148.88 38.8101C149.22 39.3301 149.76 39.5901 150.5 39.5901C151.16 39.5901 151.89 39.3901 152.69 38.9901C153.49 38.5901 154.18 38.0101 154.76 37.2501L154.91 37.3401C154.15 38.3401 153.28 39.1401 152.3 39.7401C151.32 40.3201 150.37 40.6101 149.45 40.6101C148.39 40.6101 147.56 40.2201 146.96 39.4401C146.36 38.6601 146.06 37.5801 146.06 36.2001V25.4301H144.56V24.7701ZM168.957 35.2701C168.517 36.9101 167.707 38.2101 166.527 39.1701C165.367 40.1301 163.997 40.6101 162.417 40.6101C161.417 40.6101 160.487 40.4101 159.627 40.0101C158.787 39.6101 158.057 39.0601 157.437 38.3601C156.837 37.6401 156.357 36.7901 155.997 35.8101C155.657 34.8301 155.487 33.7601 155.487 32.6001C155.487 31.4401 155.657 30.3701 155.997 29.3901C156.337 28.4101 156.807 27.5701 157.407 26.8701C158.007 26.1501 158.717 25.5901 159.537 25.1901C160.377 24.7901 161.287 24.5901 162.267 24.5901C163.067 24.5901 163.827 24.7301 164.547 25.0101C165.267 25.2901 165.917 25.6901 166.497 26.2101C167.077 26.7101 167.577 27.3301 167.997 28.0701C168.417 28.7901 168.717 29.5901 168.897 30.4701H158.007C157.967 30.7501 157.937 31.0501 157.917 31.3701C157.897 31.6701 157.887 31.9801 157.887 32.3001C157.887 33.4201 158.017 34.4401 158.277 35.3601C158.537 36.2601 158.897 37.0301 159.357 37.6701C159.837 38.2901 160.407 38.7701 161.067 39.1101C161.747 39.4501 162.497 39.6201 163.317 39.6201C164.597 39.6201 165.727 39.2401 166.707 38.4801C167.687 37.7001 168.377 36.6201 168.777 35.2401L168.957 35.2701ZM162.417 25.1601C161.357 25.1601 160.447 25.5801 159.687 26.4201C158.947 27.2401 158.427 28.3701 158.127 29.8101H166.527C166.227 28.3101 165.717 27.1601 164.997 26.3601C164.297 25.5601 163.437 25.1601 162.417 25.1601ZM176.399 44.0601C176.719 44.1201 177.059 44.1801 177.419 44.2401C177.779 44.3001 178.159 44.3301 178.559 44.3301C179.259 44.3301 179.919 44.1801 180.539 43.8801C181.179 43.5801 181.679 42.9801 182.039 42.0801L182.789 40.1601L177.449 26.7801C177.209 26.1801 176.979 25.7301 176.759 25.4301C176.539 25.1101 176.209 24.9501 175.769 24.9501V24.7701H180.629V24.9501C180.089 24.9501 179.789 25.1301 179.729 25.4901C179.689 25.8301 179.779 26.2601 179.999 26.7801L184.049 37.0401L188.069 26.8101C188.169 26.5501 188.249 26.3101 188.309 26.0901C188.369 25.8701 188.389 25.6801 188.369 25.5201C188.369 25.3401 188.309 25.2001 188.189 25.1001C188.089 25.0001 187.919 24.9501 187.679 24.9501V24.7701H190.289V24.9501C189.969 24.9501 189.699 25.1401 189.479 25.5201C189.259 25.8801 189.029 26.3501 188.789 26.9301L182.759 42.2301C182.439 43.0701 182.029 43.7601 181.529 44.3001C181.029 44.8401 180.489 45.2601 179.909 45.5601C179.349 45.8601 178.759 46.0701 178.139 46.1901C177.539 46.3101 176.959 46.3701 176.399 46.3701V44.0601ZM197.931 24.5901C198.951 24.5901 199.901 24.8001 200.781 25.2201C201.661 25.6201 202.421 26.1801 203.061 26.9001C203.721 27.6201 204.231 28.4801 204.591 29.4801C204.951 30.4601 205.131 31.5301 205.131 32.6901C205.131 33.8301 204.951 34.8901 204.591 35.8701C204.231 36.8301 203.731 37.6701 203.091 38.3901C202.471 39.0901 201.721 39.6401 200.841 40.0401C199.981 40.4201 199.031 40.6101 197.991 40.6101C196.951 40.6101 195.981 40.4101 195.081 40.0101C194.201 39.6101 193.441 39.0601 192.801 38.3601C192.161 37.6401 191.661 36.8001 191.301 35.8401C190.941 34.8601 190.761 33.7901 190.761 32.6301C190.761 31.4701 190.941 30.4001 191.301 29.4201C191.661 28.4401 192.161 27.5901 192.801 26.8701C193.441 26.1501 194.191 25.5901 195.051 25.1901C195.931 24.7901 196.891 24.5901 197.931 24.5901ZM197.961 25.1601C197.221 25.1601 196.551 25.3401 195.951 25.7001C195.371 26.0401 194.871 26.5301 194.451 27.1701C194.031 27.8101 193.711 28.5901 193.491 29.5101C193.271 30.4101 193.161 31.4301 193.161 32.5701C193.161 33.7101 193.271 34.7401 193.491 35.6601C193.731 36.5801 194.061 37.3701 194.481 38.0301C194.901 38.6701 195.401 39.1701 195.981 39.5301C196.581 39.8701 197.251 40.0401 197.991 40.0401C198.711 40.0401 199.361 39.8701 199.941 39.5301C200.541 39.1701 201.041 38.6701 201.441 38.0301C201.861 37.3901 202.181 36.6201 202.401 35.7201C202.621 34.8001 202.731 33.7701 202.731 32.6301C202.731 31.4901 202.621 30.4601 202.401 29.5401C202.181 28.6201 201.861 27.8401 201.441 27.2001C201.021 26.5401 200.511 26.0401 199.911 25.7001C199.331 25.3401 198.681 25.1601 197.961 25.1601ZM213.866 24.5901C214.546 24.5901 215.196 24.6801 215.816 24.8601C216.436 25.0201 217.006 25.2601 217.526 25.5801L221.066 24.5601L221.126 24.6201V26.2401H221.066L217.856 25.7901C218.556 26.2701 219.106 26.8501 219.506 27.5301C219.926 28.2101 220.136 28.9701 220.136 29.8101C220.136 30.5301 219.976 31.1901 219.656 31.7901C219.336 32.3901 218.896 32.9201 218.336 33.3801C217.776 33.8201 217.126 34.1701 216.386 34.4301C215.646 34.6701 214.856 34.7901 214.016 34.7901C212.556 34.7901 211.266 34.4301 210.146 33.7101C209.786 34.0101 209.496 34.3301 209.276 34.6701C209.056 34.9901 208.946 35.2901 208.946 35.5701C208.946 36.3701 210.036 36.8301 212.216 36.9501L216.746 37.2201C219.666 37.4001 221.126 38.5701 221.126 40.7301C221.126 41.5701 220.916 42.3401 220.496 43.0401C220.096 43.7601 219.536 44.3801 218.816 44.9001C218.116 45.4201 217.276 45.8201 216.296 46.1001C215.336 46.4001 214.286 46.5501 213.146 46.5501C212.246 46.5501 211.406 46.4501 210.626 46.2501C209.846 46.0701 209.176 45.8001 208.616 45.4401C208.056 45.0801 207.616 44.6501 207.296 44.1501C206.976 43.6501 206.816 43.0901 206.816 42.4701C206.816 40.9901 207.746 39.7701 209.606 38.8101C208.926 38.5901 208.386 38.2801 207.986 37.8801C207.586 37.4801 207.386 37.0101 207.386 36.4701C207.386 35.9901 207.566 35.5001 207.926 35.0001C208.306 34.5001 208.906 33.9701 209.726 33.4101C209.126 32.9501 208.646 32.4001 208.286 31.7601C207.946 31.1201 207.776 30.4201 207.776 29.6601C207.776 28.9401 207.936 28.2701 208.256 27.6501C208.576 27.0301 209.016 26.5001 209.576 26.0601C210.136 25.6001 210.776 25.2401 211.496 24.9801C212.236 24.7201 213.026 24.5901 213.866 24.5901ZM213.926 25.1601C212.766 25.1601 211.826 25.5601 211.106 26.3601C210.406 27.1401 210.056 28.2501 210.056 29.6901C210.056 31.1501 210.416 32.2701 211.136 33.0501C211.856 33.8301 212.806 34.2201 213.986 34.2201C215.166 34.2201 216.106 33.8401 216.806 33.0801C217.506 32.3201 217.856 31.2201 217.856 29.7801C217.856 28.3201 217.496 27.1901 216.776 26.3901C216.056 25.5701 215.106 25.1601 213.926 25.1601ZM210.176 38.9601C208.976 39.8201 208.376 40.8401 208.376 42.0201C208.376 42.6001 208.516 43.1301 208.796 43.6101C209.076 44.1101 209.456 44.5301 209.936 44.8701C210.416 45.2101 210.976 45.4701 211.616 45.6501C212.276 45.8501 212.976 45.9501 213.716 45.9501C214.536 45.9501 215.296 45.8401 215.996 45.6201C216.716 45.4001 217.336 45.0901 217.856 44.6901C218.396 44.3101 218.816 43.8601 219.116 43.3401C219.436 42.8201 219.596 42.2701 219.596 41.6901C219.596 40.9901 219.366 40.4601 218.906 40.1001C218.446 39.7401 217.716 39.5301 216.716 39.4701L211.406 39.1401C210.946 39.1001 210.536 39.0401 210.176 38.9601ZM230.454 24.5901C232.234 24.5901 233.534 25.0901 234.354 26.0901C235.174 27.0901 235.584 28.6801 235.584 30.8601V38.6301C235.584 39.2701 235.654 39.7001 235.794 39.9201C235.934 40.1401 236.174 40.2501 236.514 40.2501V40.4301H233.394V36.4701C232.694 37.7501 231.824 38.7601 230.784 39.5001C229.744 40.2401 228.634 40.6101 227.454 40.6101C226.834 40.6101 226.264 40.5101 225.744 40.3101C225.224 40.0901 224.764 39.8001 224.364 39.4401C223.984 39.0601 223.684 38.6201 223.464 38.1201C223.244 37.6201 223.134 37.0801 223.134 36.5001C223.134 34.9601 223.964 33.6001 225.624 32.4201C227.284 31.2201 229.834 30.3401 233.274 29.7801C233.214 28.2001 232.904 27.0401 232.344 26.3001C231.784 25.5601 230.944 25.1901 229.824 25.1901C228.684 25.1901 227.644 25.5601 226.704 26.3001C225.784 27.0401 225.034 28.1001 224.454 29.4801H224.274V27.0801C224.974 26.3001 225.864 25.6901 226.944 25.2501C228.044 24.8101 229.214 24.5901 230.454 24.5901ZM233.274 30.4401C230.614 30.9001 228.654 31.6601 227.394 32.7201C226.154 33.7601 225.534 34.9901 225.534 36.4101C225.534 37.3701 225.774 38.1201 226.254 38.6601C226.754 39.1801 227.414 39.4401 228.234 39.4401C229.214 39.4401 230.154 39.0801 231.054 38.3601C231.954 37.6401 232.694 36.6601 233.274 35.4201V30.4401ZM252.664 25.1901C251.904 25.1901 251.214 25.3601 250.594 25.7001C249.974 26.0401 249.444 26.5201 249.004 27.1401C248.564 27.7401 248.224 28.4801 247.984 29.3601C247.744 30.2401 247.624 31.2201 247.624 32.3001C247.624 33.4001 247.754 34.4101 248.014 35.3301C248.274 36.2301 248.634 37.0001 249.094 37.6401C249.574 38.2601 250.144 38.7501 250.804 39.1101C251.464 39.4501 252.204 39.6201 253.024 39.6201C253.684 39.6201 254.314 39.5101 254.914 39.2901C255.514 39.0501 256.054 38.7301 256.534 38.3301C257.034 37.9101 257.454 37.4101 257.794 36.8301C258.154 36.2501 258.414 35.6101 258.574 34.9101L258.754 34.9401C258.554 35.8001 258.244 36.5801 257.824 37.2801C257.424 37.9801 256.934 38.5801 256.354 39.0801C255.794 39.5601 255.154 39.9401 254.434 40.2201C253.734 40.4801 252.974 40.6101 252.154 40.6101C251.154 40.6101 250.224 40.4101 249.364 40.0101C248.524 39.6101 247.794 39.0501 247.174 38.3301C246.574 37.6101 246.094 36.7601 245.734 35.7801C245.394 34.8001 245.224 33.7301 245.224 32.5701C245.224 31.3901 245.394 30.3201 245.734 29.3601C246.094 28.3801 246.584 27.5401 247.204 26.8401C247.844 26.1201 248.594 25.5701 249.454 25.1901C250.334 24.7901 251.284 24.5901 252.304 24.5901C253.364 24.5901 254.354 24.8001 255.274 25.2201C256.194 25.6401 257.034 26.2601 257.794 27.0801V29.4801H257.614C256.994 28.0201 256.284 26.9401 255.484 26.2401C254.684 25.5401 253.744 25.1901 252.664 25.1901ZM261.412 20.6301C261.412 20.0301 261.342 19.6101 261.202 19.3701C261.082 19.1301 260.842 19.0101 260.482 19.0101V18.8301H263.722V38.6301C263.722 39.2301 263.762 39.6501 263.842 39.8901C263.922 40.1301 264.192 40.2501 264.652 40.2501V40.4301H260.482V40.2501C260.942 40.2501 261.212 40.1301 261.292 39.8901C261.372 39.6501 261.412 39.2301 261.412 38.6301V20.6301ZM273.989 24.5901C275.769 24.5901 277.069 25.0901 277.889 26.0901C278.709 27.0901 279.119 28.6801 279.119 30.8601V38.6301C279.119 39.2701 279.189 39.7001 279.329 39.9201C279.469 40.1401 279.709 40.2501 280.049 40.2501V40.4301H276.929V36.4701C276.229 37.7501 275.359 38.7601 274.319 39.5001C273.279 40.2401 272.169 40.6101 270.989 40.6101C270.369 40.6101 269.799 40.5101 269.279 40.3101C268.759 40.0901 268.299 39.8001 267.899 39.4401C267.519 39.0601 267.219 38.6201 266.999 38.1201C266.779 37.6201 266.669 37.0801 266.669 36.5001C266.669 34.9601 267.499 33.6001 269.159 32.4201C270.819 31.2201 273.369 30.3401 276.809 29.7801C276.749 28.2001 276.439 27.0401 275.879 26.3001C275.319 25.5601 274.479 25.1901 273.359 25.1901C272.219 25.1901 271.179 25.5601 270.239 26.3001C269.319 27.0401 268.569 28.1001 267.989 29.4801H267.809V27.0801C268.509 26.3001 269.399 25.6901 270.479 25.2501C271.579 24.8101 272.749 24.5901 273.989 24.5901ZM276.809 30.4401C274.149 30.9001 272.189 31.6601 270.929 32.7201C269.689 33.7601 269.069 34.9901 269.069 36.4101C269.069 37.3701 269.309 38.1201 269.789 38.6601C270.289 39.1801 270.949 39.4401 271.769 39.4401C272.749 39.4401 273.689 39.0801 274.589 38.3601C275.489 37.6401 276.229 36.6601 276.809 35.4201V30.4401ZM282.259 36.9501C282.839 37.9501 283.559 38.7201 284.419 39.2601C285.279 39.7801 286.299 40.0401 287.479 40.0401C288.739 40.0401 289.749 39.7601 290.509 39.2001C291.289 38.6401 291.679 37.9101 291.679 37.0101C291.679 36.3101 291.439 35.7401 290.959 35.3001C290.499 34.8601 289.919 34.4701 289.219 34.1301C288.519 33.7901 287.759 33.4701 286.939 33.1701C286.139 32.8701 285.389 32.5201 284.689 32.1201C283.989 31.7201 283.399 31.2401 282.919 30.6801C282.459 30.1201 282.229 29.4101 282.229 28.5501C282.229 27.3501 282.689 26.3901 283.609 25.6701C284.549 24.9501 285.779 24.5901 287.299 24.5901C289.259 24.5901 290.889 25.1801 292.189 26.3601V28.2501H292.009C291.349 27.1701 290.659 26.3901 289.939 25.9101C289.219 25.4101 288.389 25.1601 287.449 25.1601C286.949 25.1601 286.469 25.2301 286.009 25.3701C285.569 25.4901 285.179 25.6701 284.839 25.9101C284.519 26.1301 284.259 26.4001 284.059 26.7201C283.879 27.0401 283.789 27.3801 283.789 27.7401C283.789 28.3401 284.019 28.8401 284.479 29.2401C284.959 29.6201 285.539 29.9701 286.219 30.2901C286.919 30.5901 287.679 30.8901 288.499 31.1901C289.319 31.4901 290.069 31.8501 290.749 32.2701C291.449 32.6901 292.029 33.2101 292.489 33.8301C292.969 34.4301 293.209 35.1901 293.209 36.1101C293.209 36.8101 293.069 37.4401 292.789 38.0001C292.509 38.5401 292.109 39.0101 291.589 39.4101C291.089 39.7901 290.479 40.0901 289.759 40.3101C289.059 40.5101 288.289 40.6101 287.449 40.6101C286.349 40.6101 285.349 40.4601 284.449 40.1601C283.569 39.8401 282.779 39.5101 282.079 39.1701V36.9501H282.259ZM295.677 36.9501C296.257 37.9501 296.977 38.7201 297.837 39.2601C298.697 39.7801 299.717 40.0401 300.897 40.0401C302.157 40.0401 303.167 39.7601 303.927 39.2001C304.707 38.6401 305.097 37.9101 305.097 37.0101C305.097 36.3101 304.857 35.7401 304.377 35.3001C303.917 34.8601 303.337 34.4701 302.637 34.1301C301.937 33.7901 301.177 33.4701 300.357 33.1701C299.557 32.8701 298.807 32.5201 298.107 32.1201C297.407 31.7201 296.817 31.2401 296.337 30.6801C295.877 30.1201 295.647 29.4101 295.647 28.5501C295.647 27.3501 296.107 26.3901 297.027 25.6701C297.967 24.9501 299.197 24.5901 300.717 24.5901C302.677 24.5901 304.307 25.1801 305.607 26.3601V28.2501H305.427C304.767 27.1701 304.077 26.3901 303.357 25.9101C302.637 25.4101 301.807 25.1601 300.867 25.1601C300.367 25.1601 299.887 25.2301 299.427 25.3701C298.987 25.4901 298.597 25.6701 298.257 25.9101C297.937 26.1301 297.677 26.4001 297.477 26.7201C297.297 27.0401 297.207 27.3801 297.207 27.7401C297.207 28.3401 297.437 28.8401 297.897 29.2401C298.377 29.6201 298.957 29.9701 299.637 30.2901C300.337 30.5901 301.097 30.8901 301.917 31.1901C302.737 31.4901 303.487 31.8501 304.167 32.2701C304.867 32.6901 305.447 33.2101 305.907 33.8301C306.387 34.4301 306.627 35.1901 306.627 36.1101C306.627 36.8101 306.487 37.4401 306.207 38.0001C305.927 38.5401 305.527 39.0101 305.007 39.4101C304.507 39.7901 303.897 40.0901 303.177 40.3101C302.477 40.5101 301.707 40.6101 300.867 40.6101C299.767 40.6101 298.767 40.4601 297.867 40.1601C296.987 39.8401 296.197 39.5101 295.497 39.1701V36.9501H295.677Z" fill="white"/>
</g>
</g>
</g>
<defs>
<clipPath id="clip0_1_3197">
<rect width="308" height="60" fill="white" transform="translate(0.650391)"/>
</clipPath>
<clipPath id="clip1_1_3197">
<rect width="308" height="60" fill="white" transform="translate(0.650391)"/>
</clipPath>
<clipPath id="clip2_1_3197">
<rect width="308" height="60" fill="white" transform="translate(0.650391)"/>
</clipPath>
</defs>
</svg>
