<svg xmlns="http://www.w3.org/2000/svg" width="24" height="16" fill="none"><g clip-path="url(#a)"><path fill="#252525" d="M22 0H2a2 2 0 0 0-2 2v12a2 2 0 0 0 2 2h20a2 2 0 0 0 2-2V2a2 2 0 0 0-2-2"/><path fill="#EB001B" d="M9 13A5 5 0 1 0 9 3a5 5 0 0 0 0 10"/><path fill="#F79E1B" d="M15 13a5 5 0 1 0 0-10 5 5 0 0 0 0 10"/><path fill="#FF5F00" fill-rule="evenodd" d="M12 4c1.214.912 2 2.364 2 4a5 5 0 0 1-2 4 5 5 0 0 1-2-4c0-1.636.786-3.088 2-4" clip-rule="evenodd"/></g><defs><clipPath id="a"><path fill="#fff" d="M0 0h24v16H0z"/></clipPath></defs></svg>