<svg xmlns="http://www.w3.org/2000/svg" width="33" height="14" fill="none"><path fill="#343339" d="M6.078 1.766c-.38.45-.988.804-1.596.753-.076-.607.222-1.253.57-1.652C5.432.405 6.097.076 6.635.05c.063.633-.184 1.254-.557 1.716m.55.874c-.88-.05-1.633.5-2.051.5-.424 0-1.064-.475-1.76-.462-.905.012-1.747.525-2.21 1.342C-.343 5.653.36 8.072 1.28 9.4c.449.659.987 1.38 1.696 1.355.671-.025.937-.437 1.748-.437.816 0 1.05.437 1.76.425.734-.013 1.196-.659 1.646-1.317.513-.747.722-1.475.734-1.513-.012-.013-1.418-.551-1.43-2.172-.013-1.355 1.107-2 1.158-2.039-.633-.937-1.62-1.038-1.963-1.063M11.712.804v9.87h1.532V7.299h2.121c1.938 0 3.299-1.33 3.299-3.254S17.328.804 15.416.804zm1.532 1.291h1.767c1.33 0 2.09.71 2.09 1.957s-.76 1.962-2.096 1.962h-1.76zm8.218 8.655c.963 0 1.855-.488 2.26-1.26h.032v1.184h1.418V5.761c0-1.425-1.14-2.343-2.893-2.343-1.627 0-2.83.931-2.874 2.21h1.38c.114-.608.677-1.007 1.45-1.007.937 0 1.462.437 1.462 1.241v.545l-1.912.114c-1.779.107-2.741.835-2.741 2.102 0 1.279.994 2.127 2.418 2.127m.412-1.171c-.817 0-1.336-.393-1.336-.994 0-.62.5-.982 1.456-1.039l1.703-.107v.557c0 .924-.785 1.583-1.823 1.583m5.191 3.78c1.494 0 2.197-.57 2.811-2.299l2.691-7.547H31.01l-1.805 5.831h-.031l-1.805-5.83h-1.602l2.596 7.185-.14.437c-.233.74-.613 1.026-1.29 1.026-.12 0-.355-.013-.45-.026v1.184c.088.026.468.038.582.038"/></svg>