<svg xmlns="http://www.w3.org/2000/svg" width="31" height="13" fill="none"><path fill="#fff" d="M5.098 4.42v1.918h2.714a2.3 2.3 0 0 1-.344.858c-.173.26-.398.485-.66.658-.454.305-1.033.478-1.712.478-1.313 0-2.422-.88-2.82-2.056a3 3 0 0 1 0-1.907c.398-1.184 1.507-2.064 2.82-2.064.355-.006.709.057 1.04.185.33.128.631.32.886.563l1.44-1.424A4.87 4.87 0 0 0 5.097.334a5.1 5.1 0 0 0-2.645.749 4.95 4.95 0 0 0-1.843 2 4.92 4.92 0 0 0 0 4.474v.007a4.94 4.94 0 0 0 1.844 1.998 5.1 5.1 0 0 0 2.644.746c1.353 0 2.498-.444 3.328-1.205.95-.866 1.493-2.147 1.493-3.67q0-.511-.083-1.013zm18.513-.186q-.722-.657-1.968-.658c-1.067 0-1.87.388-2.4 1.156l.99.617q.546-.79 1.487-.79c.4 0 .785.146 1.082.408.144.123.26.274.34.445.079.17.12.355.12.542v.257c-.432-.236-.977-.36-1.647-.36-.781 0-1.41.18-1.877.547s-.705.851-.705 1.467c-.007.276.049.55.163.801.115.252.286.475.5.654.44.388.998.582 1.654.582.774 0 1.389-.34 1.854-1.018h.048v.824h1.075v-3.66c.003-.77-.234-1.38-.716-1.814m-.914 4.153a1.809 1.809 0 0 1-1.263.519 1.38 1.38 0 0 1-.872-.29.888.888 0 0 1-.37-.727q.002-.49.454-.81c.3-.215.691-.326 1.145-.326.625-.008 1.115.132 1.464.408q-.002.707-.558 1.226m-4.453-6.604a2.7 2.7 0 0 0-.883-.572 2.7 2.7 0 0 0-1.042-.187h-2.98V9.71h1.124V6.192h1.854c.76 0 1.402-.25 1.926-.741q.062-.063.126-.125a2.5 2.5 0 0 0 .678-1.797 2.5 2.5 0 0 0-.803-1.748zm-.788 2.894a1.486 1.486 0 0 1-1.11.45h-1.883V2.094h1.884a1.526 1.526 0 0 1 1.539 1.498c.006.402-.148.79-.43 1.083zm11.821-.909L27.54 8.033h-.021l-1.78-4.265h-1.22l2.462 5.56-1.396 2.992h1.158l3.756-8.552z"/></svg>