<svg xmlns="http://www.w3.org/2000/svg" width="29" height="21" fill="none"><path fill="#343339" d="M23.282 9.248s.375 1.648.459 1.993h-1.649l.79-1.927c-.01.013.163-.404.262-.66zm5.228-6.702v15.591c0 .564-.25 1.105-.694 1.503a2.52 2.52 0 0 1-1.676.623H2.438a2.52 2.52 0 0 1-1.676-.623 2.02 2.02 0 0 1-.695-1.503V2.546c0-.564.25-1.105.695-1.504A2.52 2.52 0 0 1 2.438.42H26.14c.628 0 1.231.225 1.676.623.444.4.694.94.694 1.504M7.598 13.672l3.121-6.874H8.62l-1.94 4.695-.212-.952-.692-3.162c-.114-.439-.464-.563-.898-.58H1.683l-.034.136a8.3 8.3 0 0 1 2.083.758l1.768 5.98zm4.662.01 1.245-6.884H11.52l-1.24 6.883zm6.908-2.25c.01-.784-.523-1.382-1.664-1.874-.696-.315-1.12-.527-1.12-.851.01-.293.36-.594 1.14-.594A3.7 3.7 0 0 1 19 8.375l.178.075.272-1.489a5.4 5.4 0 0 0-1.778-.293c-1.96 0-3.338.94-3.348 2.277-.015.987.988 1.537 1.739 1.868.765.337 1.027.558 1.027.855-.01.46-.622.673-1.19.673-.79 0-1.215-.11-1.862-.368l-.261-.11-.277 1.546c.464.19 1.323.358 2.212.367 2.084.004 3.442-.922 3.457-2.347zm6.972 2.25-1.6-6.884h-1.536c-.474 0-.834.125-1.037.572l-2.948 6.312h2.083s.34-.85.415-1.032h2.548c.06.244.238 1.032.238 1.032z"/></svg>