<svg xmlns="http://www.w3.org/2000/svg" width="29" height="21" fill="none"><path fill="#343339" d="M23.709 17.13c0 .302-.222.52-.54.52-.329 0-.54-.231-.54-.52 0-.287.211-.517.54-.517.318 0 .54.23.54.518m-14.99-.517c-.344 0-.54.23-.54.518s.197.518.54.518a.5.5 0 0 0 .524-.518.51.51 0 0 0-.525-.518m5.667-.013c-.261 0-.42.155-.459.385h.921c-.043-.253-.212-.385-.463-.385m5.199.013a.5.5 0 0 0-.525.518c0 .288.198.518.525.518.328 0 .54-.217.54-.518 0-.288-.213-.518-.54-.518m5.107 1.156c0 .013.015.022.015.048 0 .014-.015.023-.015.049-.015.014-.015.022-.024.035-.015.014-.024.022-.053.022-.015.014-.024.014-.053.014-.015 0-.024 0-.053-.014-.015 0-.024-.013-.038-.022-.015-.013-.025-.022-.025-.035-.014-.022-.014-.035-.014-.049 0-.022 0-.035.014-.048 0-.023.015-.035.025-.049.014-.013.024-.013.038-.022.024-.014.038-.014.053-.014.024 0 .038 0 .053.014.024.013.038.013.053.022.015.01.01.026.024.049m-.106.062c.024 0 .024-.014.038-.014.015-.013.015-.022.015-.035 0-.012 0-.022-.015-.035-.014 0-.024-.013-.053-.013h-.077v.154h.038v-.062h.015l.053.062h.038zM28.2 2.546v15.591c0 .564-.245 1.105-.679 1.503a2.42 2.42 0 0 1-1.637.623H2.733a2.42 2.42 0 0 1-1.638-.623 2.04 2.04 0 0 1-.678-1.503V2.546c0-.564.244-1.105.678-1.504A2.42 2.42 0 0 1 2.732.42h23.151c.614 0 1.203.225 1.637.623.434.4.678.94.679 1.504M3.505 8.729c0 3.388 2.995 6.134 6.68 6.134a7.17 7.17 0 0 0 3.69-1.023c-3.517-2.626-3.493-7.583 0-10.21a7.1 7.1 0 0 0-3.69-1.023C6.5 2.603 3.505 5.353 3.505 8.73m10.803 4.819c3.4-2.436 3.386-7.184 0-9.633-3.386 2.449-3.4 7.201 0 9.633m-6.863 3.38c0-.385-.276-.638-.71-.652-.222 0-.458.063-.617.288-.115-.182-.313-.288-.588-.288a.7.7 0 0 0-.288.062.6.6 0 0 0-.224.177v-.194h-.395v1.625h.395c0-.837-.12-1.337.434-1.337.492 0 .396.452.396 1.337h.381c0-.81-.12-1.337.434-1.337.493 0 .395.443.395 1.337h.396v-1.018zm2.166-.607H9.23v.194a.7.7 0 0 0-.252-.18.75.75 0 0 0-.313-.059c-.496 0-.877.364-.877.855 0 .496.38.855.877.855.251 0 .434-.085.565-.24v.205h.38zm1.953 1.134c0-.664-1.104-.364-1.104-.674 0-.253.574-.212.892-.049l.159-.287c-.453-.27-1.457-.266-1.457.363 0 .633 1.105.368 1.105.664 0 .28-.652.257-.999.035l-.168.28c.54.336 1.572.265 1.572-.333m1.708.411-.106-.301c-.184.092-.589.194-.589-.182v-.735h.632v-.328h-.632v-.496h-.396v.496h-.366v.324h.366v.74c0 .78.835.637 1.09.482m.64-.593h1.327c0-.718-.357-1.001-.84-1.001-.511 0-.877.35-.877.854 0 .908 1.09 1.059 1.63.63l-.183-.266c-.376.284-.945.256-1.057-.217m2.851-.952c-.221-.089-.559-.08-.732.194v-.194h-.396v1.625h.396v-.916c0-.515.458-.448.617-.373zm.512.81c0-.506.56-.669.998-.372l.183-.288c-.56-.403-1.577-.182-1.577.664 0 .877 1.08 1.054 1.577.664l-.183-.288c-.444.288-.998.116-.998-.38m3.216-.81h-.396v.194c-.4-.487-1.442-.212-1.442.616 0 .85 1.08 1.094 1.442.615v.205h.396zm1.625 0c-.115-.054-.53-.128-.732.194v-.194h-.381v1.625h.38v-.916c0-.487.435-.456.618-.373zm1.944-.66h-.381v.854c-.396-.482-1.442-.225-1.442.616 0 .86 1.085 1.089 1.442.615v.205h.381zm.367-3.326v.204h.038v-.204h.092v-.036h-.223v.036zm.318 5.482c0-.022 0-.048-.014-.07-.015-.014-.024-.036-.038-.05-.014-.013-.038-.021-.053-.034-.024 0-.053-.014-.077-.014-.015 0-.038.014-.068.014a.3.3 0 0 0-.053.035c-.024.013-.038.035-.038.048-.015.023-.015.05-.015.071 0 .014 0 .035.015.063 0 .013.015.035.038.048a.2.2 0 0 0 .053.035.15.15 0 0 0 .068.013c.024 0 .053 0 .077-.013.015-.013.038-.022.053-.035.015-.012.024-.035.038-.048.014-.027.014-.05.014-.063m.155-5.522h-.068l-.077.154-.078-.154h-.067v.239h.038v-.182l.077.155h.053l.068-.155v.182h.053zm.211-3.566c0-3.376-2.995-6.126-6.68-6.126a7.16 7.16 0 0 0-3.689 1.023c3.478 2.627 3.531 7.596 0 10.21a7.15 7.15 0 0 0 3.69 1.023c3.684.005 6.68-2.742 6.68-6.13"/></svg>