<svg xmlns="http://www.w3.org/2000/svg" width="31" height="21" fill="none"><path fill="#343339" d="M24.76 9.88a.87.87 0 0 0-.602-.213q-.48 0-.803.33t-.324.81q0 .363.233.57.233.208.609.208.467 0 .797-.324.33-.325.33-.79 0-.377-.24-.59m-14.72 0a.87.87 0 0 0-.603-.213q-.48 0-.803.33t-.324.81q0 .363.226.57.227.208.603.208.48 0 .81-.318.33-.317.33-.796 0-.377-.24-.59"/><path fill="#343339" d="M28.82.42H2.284A2.18 2.18 0 0 0 .104 2.597v15.487c0 1.201.978 2.178 2.179 2.178h26.538a2.18 2.18 0 0 0 2.178-2.178V2.598A2.18 2.18 0 0 0 28.821.419M4.889 10.626q-.039 0-.181-.013a3 3 0 0 0-.246-.013q-.105 0-.22.019a.4.4 0 0 0-.195.084.25.25 0 0 0-.09.169l-.234 1.425q-.026.246-.285.246h-.985a.16.16 0 0 1-.13-.064.17.17 0 0 1-.038-.143l.842-5.287q.026-.246.272-.246h2.073q.804 0 1.303.343t.499 1.108q0 1.115-.635 1.743-.636.63-1.75.629m6.92-1.711-.531 3.382q-.039.246-.285.246h-.894q-.17 0-.169-.207 0-.116.052-.272a1.64 1.64 0 0 1-.622.415 2 2 0 0 1-.752.155q-.75 0-1.198-.453-.447-.454-.447-1.219 0-.946.654-1.645t1.588-.7q.88 0 1.23.518.04-.427.22-.427h.986a.16.16 0 0 1 .13.064q.051.066.038.143m1.698 4.963h-.998q-.168 0-.168-.168 0-.105 1.062-1.556a45 45 0 0 0-.304-.906l-.545-1.594a15 15 0 0 1-.252-.765q0-.064.051-.123a.15.15 0 0 1 .117-.058h.972q.22 0 .285.207l.57 1.944 1.374-2.022a.27.27 0 0 1 .233-.13h.998q.064 0 .117.059.051.059.051.123 0 .065-.025.09l-3.305 4.77a.27.27 0 0 1-.233.129m6.103-3.252q-.039 0-.181-.013a3 3 0 0 0-.246-.013q-.105 0-.22.019a.4.4 0 0 0-.195.084.25.25 0 0 0-.09.169l-.234 1.503q-.052.168-.208.168h-1.062a.16.16 0 0 1-.13-.064.17.17 0 0 1-.038-.143l.842-5.287q.026-.246.285-.246h2.06q.804 0 1.303.343t.498 1.108q0 1.115-.634 1.743-.636.63-1.75.629m6.92-1.711-.531 3.382q-.039.246-.285.246h-.894q-.17 0-.169-.207 0-.051.026-.155t.026-.117q-.22.26-.61.415a2 2 0 0 1-.764.155q-.75 0-1.198-.453-.447-.454-.447-1.219 0-.946.654-1.645t1.587-.7q.894 0 1.232.518.038-.427.22-.427h.985a.16.16 0 0 1 .13.064q.051.066.038.143m2.294-1.918-.843 5.3q-.026.247-.272.246h-.855a.17.17 0 0 1-.13-.058.18.18 0 0 1-.051-.123l.012-.026.843-5.39q.026-.144.168-.143h.96q.167 0 .168.181z"/><path fill="#343339" d="M20.296 8.144a.64.64 0 0 0-.325-.162 3 3 0 0 0-.453-.025h-.233q-.144 0-.169.142l-.22 1.387.415-.013q.57 0 .855-.195.285-.194.285-.738 0-.26-.155-.396M5.549 8.106q-.234-.15-.752-.15h-.246q-.142 0-.169.143l-.22 1.387.428-.013q.505 0 .777-.143.273-.142.337-.596.078-.48-.155-.628"/></svg>