<svg width="32" height="31" viewBox="0 0 32 31" fill="none" xmlns="http://www.w3.org/2000/svg">
<path d="M21.1028 18.874C21.264 18.7667 21.4495 18.7014 21.6423 18.6838C21.8352 18.6663 22.0294 18.6972 22.2074 18.7736L29.0707 21.8487C29.302 21.9476 29.495 22.1187 29.6209 22.3364C29.7469 22.5542 29.7989 22.8068 29.7692 23.0566C29.5431 24.7463 28.711 26.2964 27.4277 27.4186C26.1444 28.5408 24.4972 29.1586 22.7924 29.1573C17.5431 29.1573 12.5089 27.0721 8.79706 23.3603C5.08527 19.6485 3 14.6142 3 9.36495C2.9987 7.66019 3.61659 6.01298 4.73877 4.72965C5.86094 3.44632 7.41102 2.61423 9.10072 2.38813C9.3505 2.35846 9.60317 2.41048 9.82092 2.5364C10.0387 2.66233 10.2098 2.85539 10.3086 3.08669L13.3837 9.95581C13.4593 10.1322 13.4901 10.3246 13.4733 10.5158C13.4565 10.707 13.3928 10.8911 13.2877 11.0517L10.1777 14.7496C10.0673 14.9161 10.0021 15.1083 9.98832 15.3076C9.97455 15.5068 10.0127 15.7062 10.0991 15.8863C11.3026 18.3501 13.8494 20.8664 16.3206 22.0583C16.5016 22.1443 16.7019 22.1816 16.9017 22.1665C17.1016 22.1514 17.294 22.0845 17.4601 21.9724L21.1028 18.874Z" stroke="#0F0B08" stroke-width="1.5" stroke-linecap="round" stroke-linejoin="round"/>
</svg>
