<svg xmlns="http://www.w3.org/2000/svg" width="32" height="31" fill="none"><path stroke="#0F0B08" stroke-linecap="round" stroke-linejoin="round" stroke-width="1.5" d="M21.103 18.874a1.17 1.17 0 0 1 1.104-.1l6.864 3.075a1.164 1.164 0 0 1 .698 1.208 7.034 7.034 0 0 1-6.977 6.1A19.79 19.79 0 0 1 3 9.365a7.034 7.034 0 0 1 6.1-6.977 1.164 1.164 0 0 1 1.209.699l3.075 6.869a1.16 1.16 0 0 1-.096 1.096l-3.11 3.698a1.15 1.15 0 0 0-.079 1.136c1.204 2.464 3.75 4.98 6.222 6.172a1.15 1.15 0 0 0 1.14-.086z"/></svg>