<svg xmlns="http://www.w3.org/2000/svg" width="24" height="16" fill="none"><path fill="#fff" stroke="#000" stroke-opacity=".2" stroke-width=".5" d="M21.75.25H2.25a2 2 0 0 0-2 2v11.5a2 2 0 0 0 2 2h19.5a2 2 0 0 0 2-2V2.25a2 2 0 0 0-2-2Z"/><path fill="#171E6C" d="M2.788 5.914A7.2 7.2 0 0 0 1 5.237l.028-.125h2.737c.371.013.672.125.77.519l.595 2.836.182.854 1.666-4.21h1.799l-2.674 6.167H4.304zm7.312 5.37H8.399l1.064-6.172h1.7zm6.167-6.021-.232 1.333-.153-.066a3.05 3.05 0 0 0-1.268-.236c-.671 0-.973.269-.98.531 0 .29.365.48.96.762.98.44 1.435.979 1.428 1.681-.014 1.28-1.176 2.108-2.96 2.108-.764-.007-1.5-.158-1.898-.328l.238-1.386.224.099c.553.23.917.328 1.596.328.49 0 1.015-.19 1.022-.604 0-.27-.224-.466-.882-.769-.644-.295-1.505-.788-1.491-1.674C11.878 5.84 13.06 5 14.74 5c.658 0 1.19.138 1.526.263m2.26 3.834h1.415c-.07-.308-.392-1.786-.392-1.786l-.12-.531c-.083.23-.23.604-.223.59zm2.1-3.985L22 11.284h-1.575s-.154-.71-.203-.926h-2.184l-.357.926h-1.785l2.527-5.66c.175-.4.483-.512.889-.512z"/></svg>